<svg xmlns="http://www.w3.org/2000/svg" xmlns:v="https://svgstorm.com"
viewBox = "0 0 500 500"
width="500"
height="500">
<g fill="None" fill-opacity="0.0" stroke="#000000" stroke-opacity="0.00" stroke-width="0.3"><path d="
M 0.00 500.00 
L 500.00 500.00
L 500.00 0.00
L 0.00 0.00
L 0.00 500.00
M 207.00 106.00 
C 211.61 118.34 217.89 132.35 217.00 145.00
C 213.22 132.78 207.30 118.27 207.00 106.00
M 244.00 145.00 
C 239.58 137.93 245.44 127.47 245.00 119.00
C 247.68 127.04 245.08 136.72 244.00 145.00
M 127.00 131.00 
C 123.62 129.97 122.58 125.05 121.00 122.00
C 124.55 122.88 124.88 128.21 127.00 131.00
M 286.00 125.00 
C 284.14 129.83 282.37 137.10 277.00 139.00
C 279.41 134.05 281.36 128.37 286.00 125.00
M 111.00 165.00 
C 103.99 161.03 99.69 152.52 95.00 146.00
C 102.15 149.85 107.43 158.03 111.00 165.00
M 356.00 151.00 
C 352.69 159.00 345.30 166.77 339.00 172.00
C 341.90 163.62 349.78 157.23 356.00 151.00
M 96.00 184.00 
C 84.17 178.00 69.77 173.59 60.00 166.00
C 72.24 171.03 86.54 174.00 96.00 184.00
M 384.00 176.00 
C 375.28 182.92 364.55 188.28 354.00 192.00
C 362.26 184.32 373.44 179.48 384.00 176.00
M 272.00 182.00 
C 278.98 181.73 286.02 182.00 293.00 182.00
C 303.72 182.00 311.34 181.38 318.00 187.00
C 290.55 188.15 267.30 191.34 239.00 190.00 C 210.70 188.66 185.67 192.45 157.00 191.00 C 128.33 189.55 128.60 219.53 125.00 243.00 C 121.41 266.47 117.97 296.07 118.00 321.00
C 104.12 315.14 111.30 301.38 112.00 289.00 C 112.70 276.61 115.85 262.10 117.33 249.33 C 118.81 236.56 120.69 222.27 122.33 209.33 C 123.97 196.39 127.81 184.43 143.00 185.00 C 158.19 185.57 171.81 182.88 187.00 184.00 C 202.19 185.12 216.06 182.77 231.00 183.00
C 233.33 183.00 235.67 183.00 238.00 183.00
C 249.77 183.00 260.98 182.42 272.00 182.00
M 299.00 297.00 
C 301.97 265.29 306.79 231.06 313.00 199.00
C 299.05 198.55 287.12 199.27 273.98 199.98 C 260.83 200.68 244.89 199.22 231.78 200.78 C 218.67 202.34 202.68 199.54 190.00 202.00 C 177.31 204.46 159.52 198.49 148.00 203.00 C 136.47 207.51 140.72 224.12 137.02 235.02 C 133.32 245.93 133.68 260.86 132.02 273.02 C 130.37 285.19 130.52 300.54 129.00 313.00
C 147.26 311.43 166.07 311.85 184.00 309.00
C 184.60 311.92 187.20 313.89 187.00 317.00
C 177.17 316.75 161.32 321.20 151.99 319.99 C 142.66 318.79 122.78 327.46 120.08 316.92 C 117.37 306.39 123.37 293.04 123.00 282.00 C 122.63 270.96 126.56 258.19 127.00 247.00 C 127.44 235.81 132.25 226.05 132.78 214.78 C 133.31 203.51 138.59 193.77 151.00 194.00 C 163.41 194.23 176.33 194.81 188.00 194.00 C 199.67 193.19 210.52 192.96 223.00 193.00 C 235.48 193.04 249.55 193.64 262.00 193.00 C 274.45 192.36 285.59 192.47 298.00 191.00 C 310.41 189.53 326.09 189.70 321.22 203.22 C 316.35 216.74 318.70 223.72 316.00 236.00 C 313.30 248.28 312.47 258.15 311.00 270.00 C 309.53 281.85 307.79 288.97 299.00 297.00
M 256.00 230.00 
C 262.04 230.79 260.16 241.33 253.97 239.97 C 247.79 238.62 250.00 229.21 256.00 230.00
M 194.00 231.00 
C 199.18 233.37 194.27 243.24 188.92 240.07 C 183.58 236.90 188.32 228.40 194.00 231.00
M 276.00 258.00 
C 276.47 257.88 277.91 258.19 278.00 258.00
C 279.06 255.68 279.17 252.81 283.00 254.00
C 276.63 268.32 262.09 276.76 246.78 281.78 C 231.46 286.79 205.91 285.08 190.33 281.67 C 174.75 278.26 158.22 269.36 151.00 256.00
C 167.13 271.66 192.51 280.44 215.00 281.00 C 237.49 281.56 263.64 278.45 276.00 258.00
M 344.00 289.00 
C 357.05 292.59 367.32 298.49 365.00 313.00
C 364.89 313.71 365.79 317.71 363.00 318.00
C 361.13 316.86 362.39 313.87 362.00 312.00
C 360.86 307.34 356.54 300.53 351.00 300.00
C 355.86 307.39 365.59 323.75 352.00 327.00
C 353.14 320.00 351.82 307.47 342.00 308.00
C 342.20 308.11 341.87 309.96 342.00 310.00
C 346.90 310.65 349.36 317.99 348.67 324.67 C 347.98 331.35 337.65 332.51 339.20 324.75 C 340.75 317.00 332.77 312.43 327.00 312.00
C 326.75 312.27 327.00 313.00 327.00 313.00
C 329.89 316.91 330.42 329.47 323.97 331.97 C 317.53 334.48 316.01 325.67 316.21 319.77 C 316.42 313.87 317.00 302.58 309.00 303.00
C 309.29 307.32 303.88 308.77 303.00 312.00
C 289.48 305.56 301.25 299.71 307.26 292.25 C 313.28 284.79 329.36 288.58 336.00 291.00
C 334.02 290.15 332.33 286.49 329.00 288.00
C 333.66 284.46 338.79 288.60 344.00 289.00
M 87.00 290.00 
C 81.65 290.94 74.98 294.37 70.00 292.00
C 75.15 290.43 81.88 287.09 87.00 290.00
M 236.00 309.00 
C 237.18 316.44 244.33 326.81 236.23 334.23 C 228.13 341.65 223.83 325.92 225.00 319.00
C 220.63 322.38 221.97 317.80 218.00 317.00
C 218.68 323.96 213.79 341.83 204.93 336.07 C 196.06 330.32 210.67 318.14 205.00 311.00
C 200.67 311.65 204.76 318.39 202.00 321.00
C 197.66 312.70 201.21 325.37 194.25 328.25 C 187.29 331.13 181.96 321.54 191.00 319.00
C 188.55 311.78 185.98 302.14 192.00 295.00
C 197.10 295.69 197.82 300.78 203.00 300.00
C 201.89 297.59 199.04 296.38 198.00 294.00
C 206.36 287.66 209.12 303.02 217.00 302.00
C 213.71 298.57 209.29 294.89 207.00 291.00
C 213.57 289.90 219.66 294.09 225.08 296.92 C 230.50 299.75 235.25 305.57 241.22 306.78 C 247.19 307.98 260.44 308.46 253.30 315.30 C 246.15 322.13 241.65 310.65 236.00 309.00
M 297.00 313.00 
C 284.70 313.49 271.90 311.91 260.00 314.00
C 258.55 311.55 259.08 308.57 258.00 306.00
C 271.97 307.93 290.34 297.41 297.00 313.00
M 312.00 309.00 
C 313.54 314.32 311.65 314.68 307.00 315.00
C 310.69 316.38 311.91 318.91 313.00 322.00
C 304.50 326.14 299.85 320.16 292.00 320.00
C 292.68 322.49 296.00 321.99 297.00 324.00
C 289.12 327.18 281.84 323.40 275.00 321.00
C 274.39 324.02 278.49 323.57 279.00 326.00
C 269.62 327.78 262.75 325.73 255.00 322.00
C 254.88 324.70 258.93 324.97 260.00 327.00
C 256.52 327.42 251.96 325.66 250.00 329.00
C 249.69 326.29 245.29 325.97 243.00 325.00
C 241.68 320.26 241.29 320.57 243.00 317.00
C 252.15 322.54 265.24 315.25 277.00 316.00 C 288.76 316.75 303.72 316.66 312.00 309.00
M 412.00 315.00 
C 405.86 316.09 398.83 312.49 392.00 313.00
C 397.92 310.77 406.56 312.32 412.00 315.00
M 336.00 327.00 
C 329.91 327.92 330.88 322.21 331.00 317.00
C 334.63 318.97 336.68 322.87 336.00 327.00
M 230.00 354.00 
C 247.39 352.82 265.79 351.61 283.22 350.22 C 300.65 348.83 317.31 349.05 335.00 347.00 C 352.69 344.96 371.18 346.28 388.00 342.00
C 376.85 339.02 366.89 332.72 356.00 329.00
C 366.31 323.08 378.37 334.31 389.08 337.92 C 399.78 341.54 411.97 347.22 421.00 354.00
C 390.16 361.01 359.79 360.45 328.00 363.00 C 296.20 365.55 259.38 364.12 227.00 365.00
C 207.39 365.00 189.11 361.91 173.31 350.69 C 157.50 339.48 143.36 335.16 127.00 326.00
C 134.38 321.57 144.72 324.53 154.00 323.00 C 163.28 321.47 173.86 322.26 183.00 320.00
C 181.67 323.28 177.92 326.68 182.00 330.00
C 173.77 332.48 167.84 327.76 160.00 327.00
C 160.57 329.78 164.48 328.19 165.00 331.00
C 159.60 332.09 151.83 328.67 148.00 333.00
C 161.00 339.21 170.20 342.08 182.69 350.31 C 195.19 358.53 215.03 353.07 230.00 354.00
M 118.00 325.00 
C 125.85 326.02 132.44 332.25 139.23 335.77 C 146.02 339.29 154.85 342.85 161.08 346.92 C 167.31 351.00 176.32 354.99 181.08 357.92 C 185.83 360.86 202.09 366.58 198.00 373.00 C 193.91 379.42 180.58 369.08 174.32 367.68 C 168.06 366.28 159.60 358.62 152.77 356.23 C 145.94 353.84 137.20 348.38 131.00 345.00
C 126.33 342.45 120.41 341.55 116.30 337.70 C 112.20 333.84 111.17 324.12 118.00 325.00
M 222.00 324.00 
C 222.58 326.43 224.50 330.73 221.00 332.00
C 220.42 329.57 218.50 325.27 222.00 324.00
M 314.00 330.00 
C 311.45 328.58 308.84 327.55 306.00 327.00
C 309.27 323.82 315.05 324.68 314.00 330.00
M 434.00 327.00 
C 432.05 326.48 430.05 326.28 428.00 326.00
C 429.14 324.13 432.13 325.39 434.00 325.00
C 437.25 325.22 440.14 326.46 443.00 328.00
C 440.53 330.65 436.97 326.97 434.00 327.00
M 300.00 326.00 
C 295.94 328.81 306.56 328.47 309.00 330.00
C 304.10 333.26 294.82 333.19 291.00 328.00
C 294.02 327.46 296.84 326.13 300.00 326.00
M 85.00 327.00 
C 74.16 336.56 62.06 344.26 49.00 351.00
C 58.60 341.38 72.10 332.46 85.00 327.00
M 263.00 330.00 
C 265.48 330.09 269.00 330.35 271.00 332.00
C 271.87 332.15 272.84 333.17 273.00 334.00
C 268.00 334.00 263.00 334.00 258.00 334.00
C 262.87 330.92 253.11 333.10 254.00 329.00
C 256.78 331.57 259.56 329.64 263.00 330.00
M 291.00 332.00 
C 285.73 334.13 278.29 333.27 273.00 331.00
C 277.46 327.01 286.31 328.52 291.00 332.00
M 362.00 334.00 
C 357.04 335.76 349.83 337.43 346.00 332.00
C 351.61 329.18 356.15 332.80 362.00 334.00
M 240.00 335.00 
C 239.31 330.67 248.32 328.64 251.07 331.93 C 253.83 335.22 242.60 335.75 240.00 335.00
M 197.00 337.00 
C 192.58 338.88 187.61 335.50 183.00 338.00
C 182.07 335.83 179.95 334.89 178.00 334.00
C 182.93 329.59 192.37 333.72 197.00 337.00
M 201.00 334.00 
C 198.83 335.82 196.25 333.71 194.00 333.00
C 195.46 331.33 200.22 331.27 201.00 334.00
M 347.00 335.00 
C 345.41 339.44 335.46 336.73 335.00 332.00
C 338.91 333.27 342.95 334.11 347.00 335.00
M 178.00 337.00 
C 171.93 338.24 165.50 338.21 160.00 335.00
C 165.38 331.57 173.72 332.29 178.00 337.00
M 223.00 335.00 
C 217.53 338.10 215.85 332.93 223.00 335.00
M 334.00 337.00 
C 330.22 337.44 324.84 339.65 322.00 336.00
C 325.66 335.29 330.95 332.95 334.00 337.00
M 303.00 340.00 
C 296.49 338.75 287.69 342.52 283.00 336.00
C 290.20 336.03 297.86 333.90 303.00 340.00
M 320.00 339.00 
C 313.10 338.88 305.62 341.40 301.00 335.00
C 306.80 336.04 315.81 332.68 320.00 339.00
M 377.00 340.00 
C 370.48 341.36 362.46 342.53 356.00 340.00
C 361.50 334.70 369.61 337.30 377.00 340.00
M 264.00 341.00 
C 258.31 342.90 252.43 341.76 247.00 340.00
C 250.40 336.41 260.25 336.59 264.00 341.00
M 283.00 341.00 
C 276.94 340.41 269.19 342.40 265.00 337.00
C 271.13 337.34 279.07 335.34 283.00 341.00
M 246.00 342.00 
C 241.09 343.96 233.75 343.55 229.00 341.00
C 234.30 339.05 243.01 338.25 246.00 342.00
M 356.00 342.00 
C 351.56 343.44 347.14 343.01 343.00 341.00
C 344.72 336.77 353.20 339.72 356.00 342.00
M 192.00 342.00 
C 187.88 348.69 176.74 345.08 172.00 340.00
C 178.98 338.90 186.03 342.06 192.00 342.00
M 208.00 344.00 
C 203.65 342.64 197.11 345.76 193.00 343.00
C 194.95 341.21 207.55 337.39 208.00 344.00
M 226.00 341.00 
C 226.80 341.15 231.51 340.88 231.00 344.00
C 229.86 343.07 228.45 342.92 227.00 343.00
C 223.14 343.41 216.45 345.78 213.00 342.00
C 216.26 339.49 222.10 339.19 226.00 341.00
M 343.00 342.00 
C 338.68 343.57 332.40 345.38 328.00 342.00
C 331.75 338.59 338.83 339.44 343.00 342.00
M 327.00 343.00 
C 325.49 346.73 317.49 345.09 314.00 344.00
C 317.22 339.85 322.78 342.20 327.00 343.00
M 312.00 344.00 
C 308.14 347.47 298.52 347.64 293.00 345.00
C 296.88 341.62 306.56 341.68 312.00 344.00
M 293.00 346.00 
C 287.76 347.88 279.80 349.82 275.00 345.00
C 280.66 343.12 287.66 342.92 293.00 346.00
M 275.00 347.00 
C 268.89 349.06 261.67 349.57 256.00 347.00
C 261.41 343.17 269.42 343.51 275.00 347.00
M 256.00 348.00 
C 252.83 351.76 242.75 350.58 238.00 348.00
C 243.00 344.32 250.51 346.12 256.00 348.00
M 236.00 349.00 
C 232.90 353.09 223.23 351.36 219.00 348.00
C 223.91 346.04 231.25 346.45 236.00 349.00
M 202.00 352.00 
C 195.88 352.24 189.19 352.69 185.00 348.00
C 190.84 348.21 198.32 346.60 202.00 352.00
M 219.00 351.00 
C 213.46 353.84 206.49 350.81 201.00 349.00
C 206.36 347.03 214.19 347.16 219.00 351.00
M 418.00 358.00 
C 414.10 367.87 401.35 365.81 391.00 366.00 C 380.65 366.19 368.23 366.39 357.78 367.78 C 347.33 369.17 335.02 368.49 324.33 369.33 C 313.64 370.17 301.89 371.14 291.00 371.00 C 280.11 370.86 269.91 372.92 259.78 372.78 C 249.64 372.64 235.37 373.82 225.98 373.98 C 216.58 374.13 198.33 379.03 202.00 367.00
C 206.85 369.15 212.73 367.46 218.00 368.00
C 208.34 371.80 223.89 371.06 228.00 371.00
C 223.60 367.62 222.50 367.91 231.00 368.00 C 239.50 368.09 238.06 367.71 248.00 368.00 C 257.94 368.29 270.22 367.87 280.00 367.00 C 289.78 366.13 285.68 366.89 296.00 367.00 C 306.32 367.11 315.83 365.69 326.00 366.00 C 336.17 366.31 332.36 366.24 342.00 365.00 C 351.64 363.76 363.24 363.84 373.00 363.00 C 382.76 362.16 378.15 362.74 388.00 362.00 C 397.85 361.26 408.58 360.77 418.00 358.00
M 118.00 361.00 
C 114.40 362.60 107.53 362.71 104.00 361.00
C 107.77 359.86 115.31 358.56 118.00 361.00
M 434.00 378.00 
C 428.06 378.89 420.65 381.86 415.00 379.00
C 420.96 378.13 428.58 376.18 434.00 378.00 Z"/>
</g>
<g fill="None" fill-opacity="0.0" stroke="#FFFFFF" stroke-opacity="0.74" stroke-width="0.3"><path d="
M 207.00 106.00 
C 207.30 118.27 213.22 132.78 217.00 145.00
C 217.89 132.35 211.61 118.34 207.00 106.00 Z"/>
</g>
<g fill="None" fill-opacity="0.0" stroke="#FFFFFF" stroke-opacity="0.69" stroke-width="0.3"><path d="
M 244.00 145.00 
C 245.08 136.72 247.68 127.04 245.00 119.00
C 245.44 127.47 239.58 137.93 244.00 145.00 Z"/>
</g>
<g fill="None" fill-opacity="0.0" stroke="#FFFFFF" stroke-opacity="0.61" stroke-width="0.3"><path d="
M 127.00 131.00 
C 124.88 128.21 124.55 122.88 121.00 122.00
C 122.58 125.05 123.62 129.97 127.00 131.00 Z"/>
</g>
<g fill="None" fill-opacity="0.0" stroke="#FFFFFF" stroke-opacity="0.72" stroke-width="0.3"><path d="
M 286.00 125.00 
C 281.36 128.37 279.41 134.05 277.00 139.00
C 282.37 137.10 284.14 129.83 286.00 125.00 Z"/>
</g>
<g fill="None" fill-opacity="0.0" stroke="#FFFFFF" stroke-opacity="0.76" stroke-width="0.3"><path d="
M 111.00 165.00 
C 107.43 158.03 102.15 149.85 95.00 146.00
C 99.69 152.52 103.99 161.03 111.00 165.00 Z"/>
</g>
<g fill="None" fill-opacity="0.0" stroke="#FFFFFF" stroke-opacity="0.76" stroke-width="0.3"><path d="
M 356.00 151.00 
C 349.78 157.23 341.90 163.62 339.00 172.00
C 345.30 166.77 352.69 159.00 356.00 151.00 Z"/>
</g>
<g fill="None" fill-opacity="0.0" stroke="#FBFBFB" stroke-opacity="0.72" stroke-width="0.3"><path d="
M 96.00 184.00 
C 86.54 174.00 72.24 171.03 60.00 166.00
C 69.77 173.59 84.17 178.00 96.00 184.00 Z"/>
</g>
<g fill="None" fill-opacity="0.0" stroke="#FFFFFF" stroke-opacity="0.75" stroke-width="0.3"><path d="
M 384.00 176.00 
C 373.44 179.48 362.26 184.32 354.00 192.00
C 364.55 188.28 375.28 182.92 384.00 176.00 Z"/>
</g>
<g fill="None" fill-opacity="0.0" stroke="#FEFEFE" stroke-opacity="0.88" stroke-width="0.3"><path d="
M 238.00 183.00 
C 238.07 183.01 238.00 184.00 238.00 184.00
C 245.24 188.16 225.65 190.62 231.00 184.00
C 231.24 183.70 231.00 183.00 231.00 183.00
C 216.06 182.77 202.19 185.12 187.00 184.00 C 171.81 182.88 158.19 185.57 143.00 185.00 C 127.81 184.43 123.97 196.39 122.33 209.33 C 120.69 222.27 118.81 236.56 117.33 249.33 C 115.85 262.10 112.70 276.61 112.00 289.00 C 111.30 301.38 104.12 315.14 118.00 321.00
C 117.97 296.07 121.41 266.47 125.00 243.00 C 128.60 219.53 128.33 189.55 157.00 191.00 C 185.67 192.45 210.70 188.66 239.00 190.00 C 267.30 191.34 290.55 188.15 318.00 187.00
C 311.34 181.38 303.72 182.00 293.00 182.00
C 292.54 182.16 291.39 183.86 291.00 184.00
C 289.08 187.67 283.55 187.43 277.00 187.00
C 277.11 186.00 276.53 184.27 278.00 184.00
C 276.75 183.85 273.18 182.10 272.00 182.00
C 260.98 182.42 249.77 183.00 238.00 183.00
M 126.00 224.00 
C 121.91 220.31 125.75 210.57 127.00 205.00
C 131.99 208.92 126.53 218.23 126.00 224.00
M 114.00 307.00 
C 111.62 300.40 114.54 293.41 116.00 287.00
C 117.71 292.58 117.98 303.23 114.00 307.00 Z"/>
</g>
<g fill="None" fill-opacity="0.0" stroke="#FFFFFF" stroke-opacity="0.54" stroke-width="0.3"><path d="
M 278.00 184.00 
C 281.20 184.39 287.99 185.05 291.00 184.00
C 291.39 183.86 292.54 182.16 293.00 182.00
C 286.02 182.00 278.98 181.73 272.00 182.00
C 273.18 182.10 276.75 183.85 278.00 184.00 Z"/>
</g>
<g fill="None" fill-opacity="0.0" stroke="#FFFFFF" stroke-opacity="0.15" stroke-width="0.3"><path d="
M 231.00 184.00 
C 233.07 184.28 235.93 184.28 238.00 184.00
C 238.00 184.00 238.07 183.01 238.00 183.00
C 235.67 183.00 233.33 183.00 231.00 183.00
C 231.00 183.00 231.24 183.70 231.00 184.00 Z"/>
</g>
<g fill="None" fill-opacity="0.0" stroke="#000000" stroke-opacity="0.02" stroke-width="0.3"><path d="
M 238.00 184.00 
C 235.93 184.28 233.07 184.28 231.00 184.00
C 225.65 190.62 245.24 188.16 238.00 184.00 Z"/>
</g>
<g fill="None" fill-opacity="0.0" stroke="#000000" stroke-opacity="0.01" stroke-width="0.3"><path d="
M 291.00 184.00 
C 287.99 185.05 281.20 184.39 278.00 184.00
C 276.53 184.27 277.11 186.00 277.00 187.00
C 283.55 187.43 289.08 187.67 291.00 184.00 Z"/>
</g>
<g fill="None" fill-opacity="0.0" stroke="#FFFFFF" stroke-opacity="0.93" stroke-width="0.3"><path d="
M 299.00 297.00 
C 307.79 288.97 309.53 281.85 311.00 270.00 C 312.47 258.15 313.30 248.28 316.00 236.00 C 318.70 223.72 316.35 216.74 321.22 203.22 C 326.09 189.70 310.41 189.53 298.00 191.00 C 285.59 192.47 274.45 192.36 262.00 193.00 C 249.55 193.64 235.48 193.04 223.00 193.00 C 210.52 192.96 199.67 193.19 188.00 194.00 C 176.33 194.81 163.41 194.23 151.00 194.00 C 138.59 193.77 133.31 203.51 132.78 214.78 C 132.25 226.05 127.44 235.81 127.00 247.00 C 126.56 258.19 122.63 270.96 123.00 282.00 C 123.37 293.04 117.37 306.39 120.08 316.92 C 122.78 327.46 142.66 318.79 151.99 319.99 C 161.32 321.20 177.17 316.75 187.00 317.00
C 187.20 313.89 184.60 311.92 184.00 309.00
C 166.07 311.85 147.26 311.43 129.00 313.00
C 130.52 300.54 130.37 285.19 132.02 273.02 C 133.68 260.86 133.32 245.93 137.02 235.02 C 140.72 224.12 136.47 207.51 148.00 203.00 C 159.52 198.49 177.31 204.46 190.00 202.00 C 202.68 199.54 218.67 202.34 231.78 200.78 C 244.89 199.22 260.83 200.68 273.98 199.98 C 287.12 199.27 299.05 198.55 313.00 199.00
C 306.79 231.06 301.97 265.29 299.00 297.00 Z"/>
</g>
<g fill="None" fill-opacity="0.0" stroke="#000000" stroke-opacity="0.02" stroke-width="0.3"><path d="
M 126.00 224.00 
C 126.53 218.23 131.99 208.92 127.00 205.00
C 125.75 210.57 121.91 220.31 126.00 224.00 Z"/>
</g>
<g fill="None" fill-opacity="0.0" stroke="#FFFFFF" stroke-opacity="0.87" stroke-width="0.3"><path d="
M 256.00 230.00 
C 250.00 229.21 247.79 238.62 253.97 239.97 C 260.16 241.33 262.04 230.79 256.00 230.00 Z"/>
</g>
<g fill="None" fill-opacity="0.0" stroke="#FFFFFF" stroke-opacity="0.87" stroke-width="0.3"><path d="
M 194.00 231.00 
C 188.32 228.40 183.58 236.90 188.92 240.07 C 194.27 243.24 199.18 233.37 194.00 231.00 Z"/>
</g>
<g fill="None" fill-opacity="0.0" stroke="#FFFFFF" stroke-opacity="0.80" stroke-width="0.3"><path d="
M 278.00 258.00 
C 277.76 258.61 279.20 260.98 278.00 262.00
C 275.93 262.32 274.68 259.47 276.00 258.00
C 263.64 278.45 237.49 281.56 215.00 281.00 C 192.51 280.44 167.13 271.66 151.00 256.00
C 158.22 269.36 174.75 278.26 190.33 281.67 C 205.91 285.08 231.46 286.79 246.78 281.78 C 262.09 276.76 276.63 268.32 283.00 254.00
C 279.17 252.81 279.06 255.68 278.00 258.00 Z"/>
</g>
<g fill="None" fill-opacity="0.0" stroke="#FFFFFF" stroke-opacity="0.57" stroke-width="0.3"><path d="
M 278.00 258.00 
C 277.91 258.19 276.47 257.88 276.00 258.00
C 274.68 259.47 275.93 262.32 278.00 262.00
C 279.20 260.98 277.76 258.61 278.00 258.00 Z"/>
</g>
<g fill="None" fill-opacity="0.0" stroke="#FFFFFF" stroke-opacity="0.73" stroke-width="0.3"><path d="
M 336.00 291.00 
C 338.36 291.06 343.53 293.44 344.00 289.00
C 338.79 288.60 333.66 284.46 329.00 288.00
C 332.33 286.49 334.02 290.15 336.00 291.00 Z"/>
</g>
<g fill="None" fill-opacity="0.0" stroke="#000000" stroke-opacity="0.02" stroke-width="0.3"><path d="
M 114.00 307.00 
C 117.98 303.23 117.71 292.58 116.00 287.00
C 114.54 293.41 111.62 300.40 114.00 307.00 Z"/>
</g>
<g fill="None" fill-opacity="0.0" stroke="#FBFBFB" stroke-opacity="0.91" stroke-width="0.3"><path d="
M 327.00 313.00 
C 326.73 314.59 326.15 316.37 324.00 316.00
C 323.49 310.58 325.06 314.85 327.00 312.00
C 332.77 312.43 340.75 317.00 339.20 324.75 C 337.65 332.51 347.98 331.35 348.67 324.67 C 349.36 317.99 346.90 310.65 342.00 310.00
C 339.41 309.66 338.41 310.40 336.00 310.00
C 336.77 307.29 339.89 308.14 342.00 308.00
C 351.82 307.47 353.14 320.00 352.00 327.00
C 365.59 323.75 355.86 307.39 351.00 300.00
C 356.54 300.53 360.86 307.34 362.00 312.00
C 362.57 312.44 364.30 312.34 365.00 313.00
C 367.32 298.49 357.05 292.59 344.00 289.00
C 343.53 293.44 338.36 291.06 336.00 291.00
C 329.36 288.58 313.28 284.79 307.26 292.25 C 301.25 299.71 289.48 305.56 303.00 312.00
C 303.88 308.77 309.29 307.32 309.00 303.00
C 317.00 302.58 316.42 313.87 316.21 319.77 C 316.01 325.67 317.53 334.48 323.97 331.97 C 330.42 329.47 329.89 316.91 327.00 313.00
M 322.00 291.00 
C 320.07 291.70 318.09 292.17 316.00 291.00
C 316.70 288.24 321.33 288.28 322.00 291.00
M 328.00 297.00 
C 324.51 297.14 323.40 293.90 323.00 291.00
C 326.40 290.22 327.35 294.55 328.00 297.00 Z"/>
</g>
<g fill="None" fill-opacity="0.0" stroke="#FFFFFF" stroke-opacity="0.65" stroke-width="0.3"><path d="
M 87.00 290.00 
C 81.88 287.09 75.15 290.43 70.00 292.00
C 74.98 294.37 81.65 290.94 87.00 290.00 Z"/>
</g>
<g fill="None" fill-opacity="0.0" stroke="#FFFFFF" stroke-opacity="0.39" stroke-width="0.3"><path d="
M 322.00 291.00 
C 321.33 288.28 316.70 288.24 316.00 291.00
C 318.09 292.17 320.07 291.70 322.00 291.00 Z"/>
</g>
<g fill="None" fill-opacity="0.0" stroke="#FDFDFD" stroke-opacity="0.91" stroke-width="0.3"><path d="
M 236.00 309.00 
C 241.65 310.65 246.15 322.13 253.30 315.30 C 260.44 308.46 247.19 307.98 241.22 306.78 C 235.25 305.57 230.50 299.75 225.08 296.92 C 219.66 294.09 213.57 289.90 207.00 291.00
C 209.29 294.89 213.71 298.57 217.00 302.00
C 209.12 303.02 206.36 287.66 198.00 294.00
C 199.04 296.38 201.89 297.59 203.00 300.00
C 197.82 300.78 197.10 295.69 192.00 295.00
C 185.98 302.14 188.55 311.78 191.00 319.00
C 181.96 321.54 187.29 331.13 194.25 328.25 C 201.21 325.37 197.66 312.70 202.00 321.00
C 204.76 318.39 200.67 311.65 205.00 311.00
C 210.67 318.14 196.06 330.32 204.93 336.07 C 213.79 341.83 218.68 323.96 218.00 317.00
C 221.97 317.80 220.63 322.38 225.00 319.00
C 223.83 325.92 228.13 341.65 236.23 334.23 C 244.33 326.81 237.18 316.44 236.00 309.00
M 204.00 301.00 
C 210.51 299.49 206.11 306.83 204.00 301.00 Z"/>
</g>
<g fill="None" fill-opacity="0.0" stroke="#FFFFFF" stroke-opacity="0.64" stroke-width="0.3"><path d="
M 328.00 297.00 
C 327.35 294.55 326.40 290.22 323.00 291.00
C 323.40 293.90 324.51 297.14 328.00 297.00 Z"/>
</g>
<g fill="None" fill-opacity="0.0" stroke="#000000" stroke-opacity="0.01" stroke-width="0.3"><path d="
M 204.00 301.00 
C 206.11 306.83 210.51 299.49 204.00 301.00 Z"/>
</g>
<g fill="None" fill-opacity="0.0" stroke="#FFFFFF" stroke-opacity="0.89" stroke-width="0.3"><path d="
M 297.00 313.00 
C 290.34 297.41 271.97 307.93 258.00 306.00
C 259.08 308.57 258.55 311.55 260.00 314.00
C 271.90 311.91 284.70 313.49 297.00 313.00 Z"/>
</g>
<g fill="None" fill-opacity="0.0" stroke="#FFFFFF" stroke-opacity="0.64" stroke-width="0.3"><path d="
M 342.00 310.00 
C 341.87 309.96 342.20 308.11 342.00 308.00
C 339.89 308.14 336.77 307.29 336.00 310.00
C 338.41 310.40 339.41 309.66 342.00 310.00 Z"/>
</g>
<g fill="None" fill-opacity="0.0" stroke="#FEFEFE" stroke-opacity="0.82" stroke-width="0.3"><path d="
M 312.00 309.00 
C 303.72 316.66 288.76 316.75 277.00 316.00 C 265.24 315.25 252.15 322.54 243.00 317.00
C 241.29 320.57 241.68 320.26 243.00 325.00
C 245.29 325.97 249.69 326.29 250.00 329.00
C 251.96 325.66 256.52 327.42 260.00 327.00
C 258.93 324.97 254.88 324.70 255.00 322.00
C 262.75 325.73 269.62 327.78 279.00 326.00
C 278.49 323.57 274.39 324.02 275.00 321.00
C 281.84 323.40 289.12 327.18 297.00 324.00
C 296.00 321.99 292.68 322.49 292.00 320.00
C 299.85 320.16 304.50 326.14 313.00 322.00
C 311.91 318.91 310.69 316.38 307.00 315.00
C 311.65 314.68 313.54 314.32 312.00 309.00 Z"/>
</g>
<g fill="None" fill-opacity="0.0" stroke="#FFFFFF" stroke-opacity="0.64" stroke-width="0.3"><path d="
M 327.00 313.00 
C 327.00 313.00 326.75 312.27 327.00 312.00
C 325.06 314.85 323.49 310.58 324.00 316.00
C 326.15 316.37 326.73 314.59 327.00 313.00 Z"/>
</g>
<g fill="None" fill-opacity="0.0" stroke="#FFFFFF" stroke-opacity="0.73" stroke-width="0.3"><path d="
M 365.00 313.00 
C 364.30 312.34 362.57 312.44 362.00 312.00
C 362.39 313.87 361.13 316.86 363.00 318.00
C 365.79 317.71 364.89 313.71 365.00 313.00 Z"/>
</g>
<g fill="None" fill-opacity="0.0" stroke="#FFFFFF" stroke-opacity="0.69" stroke-width="0.3"><path d="
M 412.00 315.00 
C 406.56 312.32 397.92 310.77 392.00 313.00
C 398.83 312.49 405.86 316.09 412.00 315.00 Z"/>
</g>
<g fill="None" fill-opacity="0.0" stroke="#ECECEC" stroke-opacity="0.36" stroke-width="0.3"><path d="
M 336.00 327.00 
C 336.68 322.87 334.63 318.97 331.00 317.00
C 330.88 322.21 329.91 327.92 336.00 327.00 Z"/>
</g>
<g fill="None" fill-opacity="0.0" stroke="#FDFDFD" stroke-opacity="0.85" stroke-width="0.3"><path d="
M 227.00 365.00 
C 228.43 361.04 225.86 355.95 230.00 354.00
C 215.03 353.07 195.19 358.53 182.69 350.31 C 170.20 342.08 161.00 339.21 148.00 333.00
C 151.83 328.67 159.60 332.09 165.00 331.00
C 164.48 328.19 160.57 329.78 160.00 327.00
C 167.84 327.76 173.77 332.48 182.00 330.00
C 177.92 326.68 181.67 323.28 183.00 320.00
C 173.86 322.26 163.28 321.47 154.00 323.00 C 144.72 324.53 134.38 321.57 127.00 326.00
C 143.36 335.16 157.50 339.48 173.31 350.69 C 189.11 361.91 207.39 365.00 227.00 365.00
M 211.00 361.00 
C 208.67 363.19 204.74 360.69 202.00 360.00
C 204.40 357.55 208.32 360.08 211.00 361.00 Z"/>
</g>
<g fill="None" fill-opacity="0.0" stroke="#E3E3E3" stroke-opacity="0.68" stroke-width="0.3"><path d="
M 131.00 345.00 
C 129.12 342.58 128.82 336.91 124.00 338.00
C 125.25 334.87 126.96 336.55 128.00 334.00
C 122.72 331.29 118.48 333.70 115.00 335.00
C 115.66 331.09 117.09 329.71 121.00 329.00
C 120.82 328.58 121.00 328.00 121.00 328.00
C 118.95 327.43 117.50 324.79 118.00 325.00
C 111.17 324.12 112.20 333.84 116.30 337.70 C 120.41 341.55 126.33 342.45 131.00 345.00 Z"/>
</g>
<g fill="None" fill-opacity="0.0" stroke="#ECECEC" stroke-opacity="0.62" stroke-width="0.3"><path d="
M 222.00 324.00 
C 218.50 325.27 220.42 329.57 221.00 332.00
C 224.50 330.73 222.58 326.43 222.00 324.00 Z"/>
</g>
<g fill="None" fill-opacity="0.0" stroke="#FCFCFC" stroke-opacity="0.89" stroke-width="0.3"><path d="
M 121.00 328.00 
C 123.62 329.09 126.77 330.10 129.00 333.00
C 126.08 332.87 122.56 331.56 121.00 329.00
C 117.09 329.71 115.66 331.09 115.00 335.00
C 118.48 333.70 122.72 331.29 128.00 334.00
C 126.96 336.55 125.25 334.87 124.00 338.00
C 128.82 336.91 129.12 342.58 131.00 345.00
C 137.20 348.38 145.94 353.84 152.77 356.23 C 159.60 358.62 168.06 366.28 174.32 367.68 C 180.58 369.08 193.91 379.42 198.00 373.00 C 202.09 366.58 185.83 360.86 181.08 357.92 C 176.32 354.99 167.31 351.00 161.08 346.92 C 154.85 342.85 146.02 339.29 139.23 335.77 C 132.44 332.25 125.85 326.02 118.00 325.00
C 117.50 324.79 118.95 327.43 121.00 328.00
M 134.00 334.00 
C 131.79 337.50 136.38 336.07 138.00 337.00
C 134.74 340.52 131.51 336.98 128.00 338.00
C 128.80 335.22 130.83 333.19 134.00 334.00 Z"/>
</g>
<g fill="None" fill-opacity="0.0" stroke="#FFFFFF" stroke-opacity="0.62" stroke-width="0.3"><path d="
M 314.00 330.00 
C 315.05 324.68 309.27 323.82 306.00 327.00
C 308.84 327.55 311.45 328.58 314.00 330.00 Z"/>
</g>
<g fill="None" fill-opacity="0.0" stroke="#FFFFFF" stroke-opacity="0.83" stroke-width="0.3"><path d="
M 434.00 327.00 
C 433.76 326.83 434.18 325.08 434.00 325.00
C 432.13 325.39 429.14 324.13 428.00 326.00
C 430.05 326.28 432.05 326.48 434.00 327.00 Z"/>
</g>
<g fill="None" fill-opacity="0.0" stroke="#FFFFFF" stroke-opacity="0.67" stroke-width="0.3"><path d="
M 434.00 327.00 
C 436.97 326.97 440.53 330.65 443.00 328.00
C 440.14 326.46 437.25 325.22 434.00 325.00
C 434.18 325.08 433.76 326.83 434.00 327.00 Z"/>
</g>
<g fill="None" fill-opacity="0.0" stroke="#FFFFFF" stroke-opacity="0.75" stroke-width="0.3"><path d="
M 300.00 326.00 
C 296.84 326.13 294.02 327.46 291.00 328.00
C 294.82 333.19 304.10 333.26 309.00 330.00
C 306.56 328.47 295.94 328.81 300.00 326.00 Z"/>
</g>
<g fill="None" fill-opacity="0.0" stroke="#FEFEFE" stroke-opacity="0.94" stroke-width="0.3"><path d="
M 230.00 354.00 
C 225.86 355.95 228.43 361.04 227.00 365.00
C 259.38 364.12 296.20 365.55 328.00 363.00 C 359.79 360.45 390.16 361.01 421.00 354.00
C 411.97 347.22 399.78 341.54 389.08 337.92 C 378.37 334.31 366.31 323.08 356.00 329.00
C 366.89 332.72 376.85 339.02 388.00 342.00
C 371.18 346.28 352.69 344.96 335.00 347.00 C 317.31 349.05 300.65 348.83 283.22 350.22 C 265.79 351.61 247.39 352.82 230.00 354.00
M 293.00 357.00 
C 290.90 359.08 286.85 357.50 284.00 358.00
C 286.10 355.92 290.15 357.50 293.00 357.00 Z"/>
</g>
<g fill="None" fill-opacity="0.0" stroke="#FFFFFF" stroke-opacity="0.75" stroke-width="0.3"><path d="
M 85.00 327.00 
C 72.10 332.46 58.60 341.38 49.00 351.00
C 62.06 344.26 74.16 336.56 85.00 327.00 Z"/>
</g>
<g fill="None" fill-opacity="0.0" stroke="#ADADAD" stroke-opacity="0.44" stroke-width="0.3"><path d="
M 121.00 329.00 
C 122.56 331.56 126.08 332.87 129.00 333.00
C 126.77 330.10 123.62 329.09 121.00 328.00
C 121.00 328.00 120.82 328.58 121.00 329.00 Z"/>
</g>
<g fill="None" fill-opacity="0.0" stroke="#FFFFFF" stroke-opacity="0.64" stroke-width="0.3"><path d="
M 271.00 332.00 
C 272.26 332.22 257.48 332.74 263.00 330.00
C 259.56 329.64 256.78 331.57 254.00 329.00
C 253.11 333.10 262.87 330.92 258.00 334.00
C 263.00 334.00 268.00 334.00 273.00 334.00
C 272.84 333.17 271.87 332.15 271.00 332.00 Z"/>
</g>
<g fill="None" fill-opacity="0.0" stroke="#FFFFFF" stroke-opacity="0.74" stroke-width="0.3"><path d="
M 291.00 332.00 
C 286.31 328.52 277.46 327.01 273.00 331.00
C 278.29 333.27 285.73 334.13 291.00 332.00 Z"/>
</g>
<g fill="None" fill-opacity="0.0" stroke="#FFFFFF" stroke-opacity="0.85" stroke-width="0.3"><path d="
M 271.00 332.00 
C 269.00 330.35 265.48 330.09 263.00 330.00
C 257.48 332.74 272.26 332.22 271.00 332.00 Z"/>
</g>
<g fill="None" fill-opacity="0.0" stroke="#FFFFFF" stroke-opacity="0.70" stroke-width="0.3"><path d="
M 362.00 334.00 
C 356.15 332.80 351.61 329.18 346.00 332.00
C 349.83 337.43 357.04 335.76 362.00 334.00 Z"/>
</g>
<g fill="None" fill-opacity="0.0" stroke="#FFFFFF" stroke-opacity="0.80" stroke-width="0.3"><path d="
M 240.00 335.00 
C 242.60 335.75 253.83 335.22 251.07 331.93 C 248.32 328.64 239.31 330.67 240.00 335.00 Z"/>
</g>
<g fill="None" fill-opacity="0.0" stroke="#EBEBEB" stroke-opacity="0.69" stroke-width="0.3"><path d="
M 197.00 337.00 
C 192.37 333.72 182.93 329.59 178.00 334.00
C 179.95 334.89 182.07 335.83 183.00 338.00
C 187.61 335.50 192.58 338.88 197.00 337.00 Z"/>
</g>
<g fill="None" fill-opacity="0.0" stroke="#FFFFFF" stroke-opacity="0.66" stroke-width="0.3"><path d="
M 201.00 334.00 
C 200.22 331.27 195.46 331.33 194.00 333.00
C 196.25 333.71 198.83 335.82 201.00 334.00 Z"/>
</g>
<g fill="None" fill-opacity="0.0" stroke="#FFFFFF" stroke-opacity="0.70" stroke-width="0.3"><path d="
M 347.00 335.00 
C 342.95 334.11 338.91 333.27 335.00 332.00
C 335.46 336.73 345.41 339.44 347.00 335.00 Z"/>
</g>
<g fill="None" fill-opacity="0.0" stroke="#FFFFFF" stroke-opacity="0.76" stroke-width="0.3"><path d="
M 178.00 337.00 
C 173.72 332.29 165.38 331.57 160.00 335.00
C 165.50 338.21 171.93 338.24 178.00 337.00 Z"/>
</g>
<g fill="None" fill-opacity="0.0" stroke="#FFFFFF" stroke-opacity="0.73" stroke-width="0.3"><path d="
M 134.00 334.00 
C 130.83 333.19 128.80 335.22 128.00 338.00
C 131.51 336.98 134.74 340.52 138.00 337.00
C 136.38 336.07 131.79 337.50 134.00 334.00 Z"/>
</g>
<g fill="None" fill-opacity="0.0" stroke="#FFFFFF" stroke-opacity="0.74" stroke-width="0.3"><path d="
M 223.00 335.00 
C 215.85 332.93 217.53 338.10 223.00 335.00 Z"/>
</g>
<g fill="None" fill-opacity="0.0" stroke="#FFFFFF" stroke-opacity="0.69" stroke-width="0.3"><path d="
M 334.00 337.00 
C 330.95 332.95 325.66 335.29 322.00 336.00
C 324.84 339.65 330.22 337.44 334.00 337.00 Z"/>
</g>
<g fill="None" fill-opacity="0.0" stroke="#FFFFFF" stroke-opacity="0.75" stroke-width="0.3"><path d="
M 303.00 340.00 
C 297.86 333.90 290.20 336.03 283.00 336.00
C 287.69 342.52 296.49 338.75 303.00 340.00 Z"/>
</g>
<g fill="None" fill-opacity="0.0" stroke="#F9F9F9" stroke-opacity="0.68" stroke-width="0.3"><path d="
M 320.00 339.00 
C 315.81 332.68 306.80 336.04 301.00 335.00
C 305.62 341.40 313.10 338.88 320.00 339.00 Z"/>
</g>
<g fill="None" fill-opacity="0.0" stroke="#FFFFFF" stroke-opacity="0.79" stroke-width="0.3"><path d="
M 377.00 340.00 
C 369.61 337.30 361.50 334.70 356.00 340.00
C 362.46 342.53 370.48 341.36 377.00 340.00 Z"/>
</g>
<g fill="None" fill-opacity="0.0" stroke="#FFFFFF" stroke-opacity="0.79" stroke-width="0.3"><path d="
M 264.00 341.00 
C 260.25 336.59 250.40 336.41 247.00 340.00
C 252.43 341.76 258.31 342.90 264.00 341.00 Z"/>
</g>
<g fill="None" fill-opacity="0.0" stroke="#FFFFFF" stroke-opacity="0.79" stroke-width="0.3"><path d="
M 283.00 341.00 
C 279.07 335.34 271.13 337.34 265.00 337.00
C 269.19 342.40 276.94 340.41 283.00 341.00 Z"/>
</g>
<g fill="None" fill-opacity="0.0" stroke="#FFFFFF" stroke-opacity="0.80" stroke-width="0.3"><path d="
M 246.00 342.00 
C 243.01 338.25 234.30 339.05 229.00 341.00
C 233.75 343.55 241.09 343.96 246.00 342.00 Z"/>
</g>
<g fill="None" fill-opacity="0.0" stroke="#FFFFFF" stroke-opacity="0.66" stroke-width="0.3"><path d="
M 356.00 342.00 
C 353.20 339.72 344.72 336.77 343.00 341.00
C 347.14 343.01 351.56 343.44 356.00 342.00 Z"/>
</g>
<g fill="None" fill-opacity="0.0" stroke="#FFFFFF" stroke-opacity="0.77" stroke-width="0.3"><path d="
M 192.00 342.00 
C 186.03 342.06 178.98 338.90 172.00 340.00
C 176.74 345.08 187.88 348.69 192.00 342.00 Z"/>
</g>
<g fill="None" fill-opacity="0.0" stroke="#FFFFFF" stroke-opacity="0.77" stroke-width="0.3"><path d="
M 208.00 344.00 
C 207.55 337.39 194.95 341.21 193.00 343.00
C 197.11 345.76 203.65 342.64 208.00 344.00 Z"/>
</g>
<g fill="None" fill-opacity="0.0" stroke="#FFFFFF" stroke-opacity="0.77" stroke-width="0.3"><path d="
M 227.00 343.00 
C 226.48 342.68 226.37 341.34 226.00 341.00
C 222.10 339.19 216.26 339.49 213.00 342.00
C 216.45 345.78 223.14 343.41 227.00 343.00 Z"/>
</g>
<g fill="None" fill-opacity="0.0" stroke="#B6B6B6" stroke-opacity="0.27" stroke-width="0.3"><path d="
M 226.00 341.00 
C 226.37 341.34 226.48 342.68 227.00 343.00
C 228.45 342.92 229.86 343.07 231.00 344.00
C 231.51 340.88 226.80 341.15 226.00 341.00 Z"/>
</g>
<g fill="None" fill-opacity="0.0" stroke="#FFFFFF" stroke-opacity="0.73" stroke-width="0.3"><path d="
M 343.00 342.00 
C 338.83 339.44 331.75 338.59 328.00 342.00
C 332.40 345.38 338.68 343.57 343.00 342.00 Z"/>
</g>
<g fill="None" fill-opacity="0.0" stroke="#FFFFFF" stroke-opacity="0.80" stroke-width="0.3"><path d="
M 327.00 343.00 
C 322.78 342.20 317.22 339.85 314.00 344.00
C 317.49 345.09 325.49 346.73 327.00 343.00 Z"/>
</g>
<g fill="None" fill-opacity="0.0" stroke="#FFFFFF" stroke-opacity="0.80" stroke-width="0.3"><path d="
M 312.00 344.00 
C 306.56 341.68 296.88 341.62 293.00 345.00
C 298.52 347.64 308.14 347.47 312.00 344.00 Z"/>
</g>
<g fill="None" fill-opacity="0.0" stroke="#FFFFFF" stroke-opacity="0.78" stroke-width="0.3"><path d="
M 293.00 346.00 
C 287.66 342.92 280.66 343.12 275.00 345.00
C 279.80 349.82 287.76 347.88 293.00 346.00 Z"/>
</g>
<g fill="None" fill-opacity="0.0" stroke="#FFFFFF" stroke-opacity="0.76" stroke-width="0.3"><path d="
M 275.00 347.00 
C 269.42 343.51 261.41 343.17 256.00 347.00
C 261.67 349.57 268.89 349.06 275.00 347.00 Z"/>
</g>
<g fill="None" fill-opacity="0.0" stroke="#FFFFFF" stroke-opacity="0.74" stroke-width="0.3"><path d="
M 256.00 348.00 
C 250.51 346.12 243.00 344.32 238.00 348.00
C 242.75 350.58 252.83 351.76 256.00 348.00 Z"/>
</g>
<g fill="None" fill-opacity="0.0" stroke="#FFFFFF" stroke-opacity="0.76" stroke-width="0.3"><path d="
M 236.00 349.00 
C 231.25 346.45 223.91 346.04 219.00 348.00
C 223.23 351.36 232.90 353.09 236.00 349.00 Z"/>
</g>
<g fill="None" fill-opacity="0.0" stroke="#FFFFFF" stroke-opacity="0.82" stroke-width="0.3"><path d="
M 202.00 352.00 
C 198.32 346.60 190.84 348.21 185.00 348.00
C 189.19 352.69 195.88 352.24 202.00 352.00 Z"/>
</g>
<g fill="None" fill-opacity="0.0" stroke="#FFFFFF" stroke-opacity="0.76" stroke-width="0.3"><path d="
M 219.00 351.00 
C 214.19 347.16 206.36 347.03 201.00 349.00
C 206.49 350.81 213.46 353.84 219.00 351.00 Z"/>
</g>
<g fill="None" fill-opacity="0.0" stroke="#000000" stroke-opacity="0.00" stroke-width="0.3"><path d="
M 293.00 357.00 
C 290.15 357.50 286.10 355.92 284.00 358.00
C 286.85 357.50 290.90 359.08 293.00 357.00 Z"/>
</g>
<g fill="None" fill-opacity="0.0" stroke="#FFFFFF" stroke-opacity="0.87" stroke-width="0.3"><path d="
M 418.00 358.00 
C 408.58 360.77 397.85 361.26 388.00 362.00 C 378.15 362.74 382.76 362.16 373.00 363.00 C 363.24 363.84 351.64 363.76 342.00 365.00 C 332.36 366.24 336.17 366.31 326.00 366.00 C 315.83 365.69 306.32 367.11 296.00 367.00 C 285.68 366.89 289.78 366.13 280.00 367.00 C 270.22 367.87 257.94 368.29 248.00 368.00 C 238.06 367.71 239.50 368.09 231.00 368.00 C 222.50 367.91 223.60 367.62 228.00 371.00
C 223.89 371.06 208.34 371.80 218.00 368.00
C 212.73 367.46 206.85 369.15 202.00 367.00
C 198.33 379.03 216.58 374.13 225.98 373.98 C 235.37 373.82 249.64 372.64 259.78 372.78 C 269.91 372.92 280.11 370.86 291.00 371.00 C 301.89 371.14 313.64 370.17 324.33 369.33 C 335.02 368.49 347.33 369.17 357.78 367.78 C 368.23 366.39 380.65 366.19 391.00 366.00 C 401.35 365.81 414.10 367.87 418.00 358.00 Z"/>
</g>
<g fill="None" fill-opacity="0.0" stroke="#FFFFFF" stroke-opacity="0.81" stroke-width="0.3"><path d="
M 118.00 361.00 
C 115.31 358.56 107.77 359.86 104.00 361.00
C 107.53 362.71 114.40 362.60 118.00 361.00 Z"/>
</g>
<g fill="None" fill-opacity="0.0" stroke="#000000" stroke-opacity="0.02" stroke-width="0.3"><path d="
M 211.00 361.00 
C 208.32 360.08 204.40 357.55 202.00 360.00
C 204.74 360.69 208.67 363.19 211.00 361.00 Z"/>
</g>
<g fill="None" fill-opacity="0.0" stroke="#FFFFFF" stroke-opacity="0.65" stroke-width="0.3"><path d="
M 434.00 378.00 
C 428.58 376.18 420.96 378.13 415.00 379.00
C 420.65 381.86 428.06 378.89 434.00 378.00 Z"/>
</g>
<g fill="#000000" fill-opacity="0.00" stroke="None">
<path d="
M 0.00 500.00 
L 500.00 500.00
L 500.00 0.00
L 0.00 0.00
L 0.00 500.00
M 207.00 106.00 
C 211.61 118.34 217.89 132.35 217.00 145.00
C 213.22 132.78 207.30 118.27 207.00 106.00
M 244.00 145.00 
C 239.58 137.93 245.44 127.47 245.00 119.00
C 247.68 127.04 245.08 136.72 244.00 145.00
M 127.00 131.00 
C 123.62 129.97 122.58 125.05 121.00 122.00
C 124.55 122.88 124.88 128.21 127.00 131.00
M 286.00 125.00 
C 284.14 129.83 282.37 137.10 277.00 139.00
C 279.41 134.05 281.36 128.37 286.00 125.00
M 111.00 165.00 
C 103.99 161.03 99.69 152.52 95.00 146.00
C 102.15 149.85 107.43 158.03 111.00 165.00
M 356.00 151.00 
C 352.69 159.00 345.30 166.77 339.00 172.00
C 341.90 163.62 349.78 157.23 356.00 151.00
M 96.00 184.00 
C 84.17 178.00 69.77 173.59 60.00 166.00
C 72.24 171.03 86.54 174.00 96.00 184.00
M 384.00 176.00 
C 375.28 182.92 364.55 188.28 354.00 192.00
C 362.26 184.32 373.44 179.48 384.00 176.00
M 272.00 182.00 
C 278.98 181.73 286.02 182.00 293.00 182.00
C 303.72 182.00 311.34 181.38 318.00 187.00
C 290.55 188.15 267.30 191.34 239.00 190.00 C 210.70 188.66 185.67 192.45 157.00 191.00 C 128.33 189.55 128.60 219.53 125.00 243.00 C 121.41 266.47 117.97 296.07 118.00 321.00
C 104.12 315.14 111.30 301.38 112.00 289.00 C 112.70 276.61 115.85 262.10 117.33 249.33 C 118.81 236.56 120.69 222.27 122.33 209.33 C 123.97 196.39 127.81 184.43 143.00 185.00 C 158.19 185.57 171.81 182.88 187.00 184.00 C 202.19 185.12 216.06 182.77 231.00 183.00
C 233.33 183.00 235.67 183.00 238.00 183.00
C 249.77 183.00 260.98 182.42 272.00 182.00
M 299.00 297.00 
C 301.97 265.29 306.79 231.06 313.00 199.00
C 299.05 198.55 287.12 199.27 273.98 199.98 C 260.83 200.68 244.89 199.22 231.78 200.78 C 218.67 202.34 202.68 199.54 190.00 202.00 C 177.31 204.46 159.52 198.49 148.00 203.00 C 136.47 207.51 140.72 224.12 137.02 235.02 C 133.32 245.93 133.68 260.86 132.02 273.02 C 130.37 285.19 130.52 300.54 129.00 313.00
C 147.26 311.43 166.07 311.85 184.00 309.00
C 184.60 311.92 187.20 313.89 187.00 317.00
C 177.17 316.75 161.32 321.20 151.99 319.99 C 142.66 318.79 122.78 327.46 120.08 316.92 C 117.37 306.39 123.37 293.04 123.00 282.00 C 122.63 270.96 126.56 258.19 127.00 247.00 C 127.44 235.81 132.25 226.05 132.78 214.78 C 133.31 203.51 138.59 193.77 151.00 194.00 C 163.41 194.23 176.33 194.81 188.00 194.00 C 199.67 193.19 210.52 192.96 223.00 193.00 C 235.48 193.04 249.55 193.64 262.00 193.00 C 274.45 192.36 285.59 192.47 298.00 191.00 C 310.41 189.53 326.09 189.70 321.22 203.22 C 316.35 216.74 318.70 223.72 316.00 236.00 C 313.30 248.28 312.47 258.15 311.00 270.00 C 309.53 281.85 307.79 288.97 299.00 297.00
M 256.00 230.00 
C 262.04 230.79 260.16 241.33 253.97 239.97 C 247.79 238.62 250.00 229.21 256.00 230.00
M 194.00 231.00 
C 199.18 233.37 194.27 243.24 188.92 240.07 C 183.58 236.90 188.32 228.40 194.00 231.00
M 276.00 258.00 
C 276.47 257.88 277.91 258.19 278.00 258.00
C 279.06 255.68 279.17 252.81 283.00 254.00
C 276.63 268.32 262.09 276.76 246.78 281.78 C 231.46 286.79 205.91 285.08 190.33 281.67 C 174.75 278.26 158.22 269.36 151.00 256.00
C 167.13 271.66 192.51 280.44 215.00 281.00 C 237.49 281.56 263.64 278.45 276.00 258.00
M 344.00 289.00 
C 357.05 292.59 367.32 298.49 365.00 313.00
C 364.89 313.71 365.79 317.71 363.00 318.00
C 361.13 316.86 362.39 313.87 362.00 312.00
C 360.86 307.34 356.54 300.53 351.00 300.00
C 355.86 307.39 365.59 323.75 352.00 327.00
C 353.14 320.00 351.82 307.47 342.00 308.00
C 342.20 308.11 341.87 309.96 342.00 310.00
C 346.90 310.65 349.36 317.99 348.67 324.67 C 347.98 331.35 337.65 332.51 339.20 324.75 C 340.75 317.00 332.77 312.43 327.00 312.00
C 326.75 312.27 327.00 313.00 327.00 313.00
C 329.89 316.91 330.42 329.47 323.97 331.97 C 317.53 334.48 316.01 325.67 316.21 319.77 C 316.42 313.87 317.00 302.58 309.00 303.00
C 309.29 307.32 303.88 308.77 303.00 312.00
C 289.48 305.56 301.25 299.71 307.26 292.25 C 313.28 284.79 329.36 288.58 336.00 291.00
C 334.02 290.15 332.33 286.49 329.00 288.00
C 333.66 284.46 338.79 288.60 344.00 289.00
M 87.00 290.00 
C 81.65 290.94 74.98 294.37 70.00 292.00
C 75.15 290.43 81.88 287.09 87.00 290.00
M 236.00 309.00 
C 237.18 316.44 244.33 326.81 236.23 334.23 C 228.13 341.65 223.83 325.92 225.00 319.00
C 220.63 322.38 221.97 317.80 218.00 317.00
C 218.68 323.96 213.79 341.83 204.93 336.07 C 196.06 330.32 210.67 318.14 205.00 311.00
C 200.67 311.65 204.76 318.39 202.00 321.00
C 197.66 312.70 201.21 325.37 194.25 328.25 C 187.29 331.13 181.96 321.54 191.00 319.00
C 188.55 311.78 185.98 302.14 192.00 295.00
C 197.10 295.69 197.82 300.78 203.00 300.00
C 201.89 297.59 199.04 296.38 198.00 294.00
C 206.36 287.66 209.12 303.02 217.00 302.00
C 213.71 298.57 209.29 294.89 207.00 291.00
C 213.57 289.90 219.66 294.09 225.08 296.92 C 230.50 299.75 235.25 305.57 241.22 306.78 C 247.19 307.98 260.44 308.46 253.30 315.30 C 246.15 322.13 241.65 310.65 236.00 309.00
M 297.00 313.00 
C 284.70 313.49 271.90 311.91 260.00 314.00
C 258.55 311.55 259.08 308.57 258.00 306.00
C 271.97 307.93 290.34 297.41 297.00 313.00
M 312.00 309.00 
C 313.54 314.32 311.65 314.68 307.00 315.00
C 310.69 316.38 311.91 318.91 313.00 322.00
C 304.50 326.14 299.85 320.16 292.00 320.00
C 292.68 322.49 296.00 321.99 297.00 324.00
C 289.12 327.18 281.84 323.40 275.00 321.00
C 274.39 324.02 278.49 323.57 279.00 326.00
C 269.62 327.78 262.75 325.73 255.00 322.00
C 254.88 324.70 258.93 324.97 260.00 327.00
C 256.52 327.42 251.96 325.66 250.00 329.00
C 249.69 326.29 245.29 325.97 243.00 325.00
C 241.68 320.26 241.29 320.57 243.00 317.00
C 252.15 322.54 265.24 315.25 277.00 316.00 C 288.76 316.75 303.72 316.66 312.00 309.00
M 412.00 315.00 
C 405.86 316.09 398.83 312.49 392.00 313.00
C 397.92 310.77 406.56 312.32 412.00 315.00
M 336.00 327.00 
C 329.91 327.92 330.88 322.21 331.00 317.00
C 334.63 318.97 336.68 322.87 336.00 327.00
M 230.00 354.00 
C 247.39 352.82 265.79 351.61 283.22 350.22 C 300.65 348.83 317.31 349.05 335.00 347.00 C 352.69 344.96 371.18 346.28 388.00 342.00
C 376.85 339.02 366.89 332.72 356.00 329.00
C 366.31 323.08 378.37 334.31 389.08 337.92 C 399.78 341.54 411.97 347.22 421.00 354.00
C 390.16 361.01 359.79 360.45 328.00 363.00 C 296.20 365.55 259.38 364.12 227.00 365.00
C 207.39 365.00 189.11 361.91 173.31 350.69 C 157.50 339.48 143.36 335.16 127.00 326.00
C 134.38 321.57 144.72 324.53 154.00 323.00 C 163.28 321.47 173.86 322.26 183.00 320.00
C 181.67 323.28 177.92 326.68 182.00 330.00
C 173.77 332.48 167.84 327.76 160.00 327.00
C 160.57 329.78 164.48 328.19 165.00 331.00
C 159.60 332.09 151.83 328.67 148.00 333.00
C 161.00 339.21 170.20 342.08 182.69 350.31 C 195.19 358.53 215.03 353.07 230.00 354.00
M 118.00 325.00 
C 125.85 326.02 132.44 332.25 139.23 335.77 C 146.02 339.29 154.85 342.85 161.08 346.92 C 167.31 351.00 176.32 354.99 181.08 357.92 C 185.83 360.86 202.09 366.58 198.00 373.00 C 193.91 379.42 180.58 369.08 174.32 367.68 C 168.06 366.28 159.60 358.62 152.77 356.23 C 145.94 353.84 137.20 348.38 131.00 345.00
C 126.33 342.45 120.41 341.55 116.30 337.70 C 112.20 333.84 111.17 324.12 118.00 325.00
M 222.00 324.00 
C 222.58 326.43 224.50 330.73 221.00 332.00
C 220.42 329.57 218.50 325.27 222.00 324.00
M 314.00 330.00 
C 311.45 328.58 308.84 327.55 306.00 327.00
C 309.27 323.82 315.05 324.68 314.00 330.00
M 434.00 327.00 
C 432.05 326.48 430.05 326.28 428.00 326.00
C 429.14 324.13 432.13 325.39 434.00 325.00
C 437.25 325.22 440.14 326.46 443.00 328.00
C 440.53 330.65 436.97 326.97 434.00 327.00
M 300.00 326.00 
C 295.94 328.81 306.56 328.47 309.00 330.00
C 304.10 333.26 294.82 333.19 291.00 328.00
C 294.02 327.46 296.84 326.13 300.00 326.00
M 85.00 327.00 
C 74.16 336.56 62.06 344.26 49.00 351.00
C 58.60 341.38 72.10 332.46 85.00 327.00
M 263.00 330.00 
C 265.48 330.09 269.00 330.35 271.00 332.00
C 271.87 332.15 272.84 333.17 273.00 334.00
C 268.00 334.00 263.00 334.00 258.00 334.00
C 262.87 330.92 253.11 333.10 254.00 329.00
C 256.78 331.57 259.56 329.64 263.00 330.00
M 291.00 332.00 
C 285.73 334.13 278.29 333.27 273.00 331.00
C 277.46 327.01 286.31 328.52 291.00 332.00
M 362.00 334.00 
C 357.04 335.76 349.83 337.43 346.00 332.00
C 351.61 329.18 356.15 332.80 362.00 334.00
M 240.00 335.00 
C 239.31 330.67 248.32 328.64 251.07 331.93 C 253.83 335.22 242.60 335.75 240.00 335.00
M 197.00 337.00 
C 192.58 338.88 187.61 335.50 183.00 338.00
C 182.07 335.83 179.95 334.89 178.00 334.00
C 182.93 329.59 192.37 333.72 197.00 337.00
M 201.00 334.00 
C 198.83 335.82 196.25 333.71 194.00 333.00
C 195.46 331.33 200.22 331.27 201.00 334.00
M 347.00 335.00 
C 345.41 339.44 335.46 336.73 335.00 332.00
C 338.91 333.27 342.95 334.11 347.00 335.00
M 178.00 337.00 
C 171.93 338.24 165.50 338.21 160.00 335.00
C 165.38 331.57 173.72 332.29 178.00 337.00
M 223.00 335.00 
C 217.53 338.10 215.85 332.93 223.00 335.00
M 334.00 337.00 
C 330.22 337.44 324.84 339.65 322.00 336.00
C 325.66 335.29 330.95 332.95 334.00 337.00
M 303.00 340.00 
C 296.49 338.75 287.69 342.52 283.00 336.00
C 290.20 336.03 297.86 333.90 303.00 340.00
M 320.00 339.00 
C 313.10 338.88 305.62 341.40 301.00 335.00
C 306.80 336.04 315.81 332.68 320.00 339.00
M 377.00 340.00 
C 370.48 341.36 362.46 342.53 356.00 340.00
C 361.50 334.70 369.61 337.30 377.00 340.00
M 264.00 341.00 
C 258.31 342.90 252.43 341.76 247.00 340.00
C 250.40 336.41 260.25 336.59 264.00 341.00
M 283.00 341.00 
C 276.94 340.41 269.19 342.40 265.00 337.00
C 271.13 337.34 279.07 335.34 283.00 341.00
M 246.00 342.00 
C 241.09 343.96 233.75 343.55 229.00 341.00
C 234.30 339.05 243.01 338.25 246.00 342.00
M 356.00 342.00 
C 351.56 343.44 347.14 343.01 343.00 341.00
C 344.72 336.77 353.20 339.72 356.00 342.00
M 192.00 342.00 
C 187.88 348.69 176.74 345.08 172.00 340.00
C 178.98 338.90 186.03 342.06 192.00 342.00
M 208.00 344.00 
C 203.65 342.64 197.11 345.76 193.00 343.00
C 194.95 341.21 207.55 337.39 208.00 344.00
M 226.00 341.00 
C 226.80 341.15 231.51 340.88 231.00 344.00
C 229.86 343.07 228.45 342.92 227.00 343.00
C 223.14 343.41 216.45 345.78 213.00 342.00
C 216.26 339.49 222.10 339.19 226.00 341.00
M 343.00 342.00 
C 338.68 343.57 332.40 345.38 328.00 342.00
C 331.75 338.59 338.83 339.44 343.00 342.00
M 327.00 343.00 
C 325.49 346.73 317.49 345.09 314.00 344.00
C 317.22 339.85 322.78 342.20 327.00 343.00
M 312.00 344.00 
C 308.14 347.47 298.52 347.64 293.00 345.00
C 296.88 341.62 306.56 341.68 312.00 344.00
M 293.00 346.00 
C 287.76 347.88 279.80 349.82 275.00 345.00
C 280.66 343.12 287.66 342.92 293.00 346.00
M 275.00 347.00 
C 268.89 349.06 261.67 349.57 256.00 347.00
C 261.41 343.17 269.42 343.51 275.00 347.00
M 256.00 348.00 
C 252.83 351.76 242.75 350.58 238.00 348.00
C 243.00 344.32 250.51 346.12 256.00 348.00
M 236.00 349.00 
C 232.90 353.09 223.23 351.36 219.00 348.00
C 223.91 346.04 231.25 346.45 236.00 349.00
M 202.00 352.00 
C 195.88 352.24 189.19 352.69 185.00 348.00
C 190.84 348.21 198.32 346.60 202.00 352.00
M 219.00 351.00 
C 213.46 353.84 206.49 350.81 201.00 349.00
C 206.36 347.03 214.19 347.16 219.00 351.00
M 418.00 358.00 
C 414.10 367.87 401.35 365.81 391.00 366.00 C 380.65 366.19 368.23 366.39 357.78 367.78 C 347.33 369.17 335.02 368.49 324.33 369.33 C 313.64 370.17 301.89 371.14 291.00 371.00 C 280.11 370.86 269.91 372.92 259.78 372.78 C 249.64 372.64 235.37 373.82 225.98 373.98 C 216.58 374.13 198.33 379.03 202.00 367.00
C 206.85 369.15 212.73 367.46 218.00 368.00
C 208.34 371.80 223.89 371.06 228.00 371.00
C 223.60 367.62 222.50 367.91 231.00 368.00 C 239.50 368.09 238.06 367.71 248.00 368.00 C 257.94 368.29 270.22 367.87 280.00 367.00 C 289.78 366.13 285.68 366.89 296.00 367.00 C 306.32 367.11 315.83 365.69 326.00 366.00 C 336.17 366.31 332.36 366.24 342.00 365.00 C 351.64 363.76 363.24 363.84 373.00 363.00 C 382.76 362.16 378.15 362.74 388.00 362.00 C 397.85 361.26 408.58 360.77 418.00 358.00
M 118.00 361.00 
C 114.40 362.60 107.53 362.71 104.00 361.00
C 107.77 359.86 115.31 358.56 118.00 361.00
M 434.00 378.00 
C 428.06 378.89 420.65 381.86 415.00 379.00
C 420.96 378.13 428.58 376.18 434.00 378.00 Z"/>
</g>
<g fill="#FFFFFF" fill-opacity="0.74" stroke="None">
<path d="
M 207.00 106.00 
C 207.30 118.27 213.22 132.78 217.00 145.00
C 217.89 132.35 211.61 118.34 207.00 106.00 Z"/>
</g>
<g fill="#FFFFFF" fill-opacity="0.69" stroke="None">
<path d="
M 244.00 145.00 
C 245.08 136.72 247.68 127.04 245.00 119.00
C 245.44 127.47 239.58 137.93 244.00 145.00 Z"/>
</g>
<g fill="#FFFFFF" fill-opacity="0.61" stroke="None">
<path d="
M 127.00 131.00 
C 124.88 128.21 124.55 122.88 121.00 122.00
C 122.58 125.05 123.62 129.97 127.00 131.00 Z"/>
</g>
<g fill="#FFFFFF" fill-opacity="0.72" stroke="None">
<path d="
M 286.00 125.00 
C 281.36 128.37 279.41 134.05 277.00 139.00
C 282.37 137.10 284.14 129.83 286.00 125.00 Z"/>
</g>
<g fill="#FFFFFF" fill-opacity="0.76" stroke="None">
<path d="
M 111.00 165.00 
C 107.43 158.03 102.15 149.85 95.00 146.00
C 99.69 152.52 103.99 161.03 111.00 165.00 Z"/>
</g>
<g fill="#FFFFFF" fill-opacity="0.76" stroke="None">
<path d="
M 356.00 151.00 
C 349.78 157.23 341.90 163.62 339.00 172.00
C 345.30 166.77 352.69 159.00 356.00 151.00 Z"/>
</g>
<g fill="#FBFBFB" fill-opacity="0.72" stroke="None">
<path d="
M 96.00 184.00 
C 86.54 174.00 72.24 171.03 60.00 166.00
C 69.77 173.59 84.17 178.00 96.00 184.00 Z"/>
</g>
<g fill="#FFFFFF" fill-opacity="0.75" stroke="None">
<path d="
M 384.00 176.00 
C 373.44 179.48 362.26 184.32 354.00 192.00
C 364.55 188.28 375.28 182.92 384.00 176.00 Z"/>
</g>
<g fill="#FEFEFE" fill-opacity="0.88" stroke="None">
<path d="
M 238.00 183.00 
C 238.07 183.01 238.00 184.00 238.00 184.00
C 245.24 188.16 225.65 190.62 231.00 184.00
C 231.24 183.70 231.00 183.00 231.00 183.00
C 216.06 182.77 202.19 185.12 187.00 184.00 C 171.81 182.88 158.19 185.57 143.00 185.00 C 127.81 184.43 123.97 196.39 122.33 209.33 C 120.69 222.27 118.81 236.56 117.33 249.33 C 115.85 262.10 112.70 276.61 112.00 289.00 C 111.30 301.38 104.12 315.14 118.00 321.00
C 117.97 296.07 121.41 266.47 125.00 243.00 C 128.60 219.53 128.33 189.55 157.00 191.00 C 185.67 192.45 210.70 188.66 239.00 190.00 C 267.30 191.34 290.55 188.15 318.00 187.00
C 311.34 181.38 303.72 182.00 293.00 182.00
C 292.54 182.16 291.39 183.86 291.00 184.00
C 289.08 187.67 283.55 187.43 277.00 187.00
C 277.11 186.00 276.53 184.27 278.00 184.00
C 276.75 183.85 273.18 182.10 272.00 182.00
C 260.98 182.42 249.77 183.00 238.00 183.00
M 126.00 224.00 
C 121.91 220.31 125.75 210.57 127.00 205.00
C 131.99 208.92 126.53 218.23 126.00 224.00
M 114.00 307.00 
C 111.62 300.40 114.54 293.41 116.00 287.00
C 117.71 292.58 117.98 303.23 114.00 307.00 Z"/>
</g>
<g fill="#FFFFFF" fill-opacity="0.54" stroke="None">
<path d="
M 278.00 184.00 
C 281.20 184.39 287.99 185.05 291.00 184.00
C 291.39 183.86 292.54 182.16 293.00 182.00
C 286.02 182.00 278.98 181.73 272.00 182.00
C 273.18 182.10 276.75 183.85 278.00 184.00 Z"/>
</g>
<g fill="#FFFFFF" fill-opacity="0.15" stroke="None">
<path d="
M 231.00 184.00 
C 233.07 184.28 235.93 184.28 238.00 184.00
C 238.00 184.00 238.07 183.01 238.00 183.00
C 235.67 183.00 233.33 183.00 231.00 183.00
C 231.00 183.00 231.24 183.70 231.00 184.00 Z"/>
</g>
<g fill="#000000" fill-opacity="0.02" stroke="None">
<path d="
M 238.00 184.00 
C 235.93 184.28 233.07 184.28 231.00 184.00
C 225.65 190.62 245.24 188.16 238.00 184.00 Z"/>
</g>
<g fill="#000000" fill-opacity="0.01" stroke="None">
<path d="
M 291.00 184.00 
C 287.99 185.05 281.20 184.39 278.00 184.00
C 276.53 184.27 277.11 186.00 277.00 187.00
C 283.55 187.43 289.08 187.67 291.00 184.00 Z"/>
</g>
<g fill="#FFFFFF" fill-opacity="0.93" stroke="None">
<path d="
M 299.00 297.00 
C 307.79 288.97 309.53 281.85 311.00 270.00 C 312.47 258.15 313.30 248.28 316.00 236.00 C 318.70 223.72 316.35 216.74 321.22 203.22 C 326.09 189.70 310.41 189.53 298.00 191.00 C 285.59 192.47 274.45 192.36 262.00 193.00 C 249.55 193.64 235.48 193.04 223.00 193.00 C 210.52 192.96 199.67 193.19 188.00 194.00 C 176.33 194.81 163.41 194.23 151.00 194.00 C 138.59 193.77 133.31 203.51 132.78 214.78 C 132.25 226.05 127.44 235.81 127.00 247.00 C 126.56 258.19 122.63 270.96 123.00 282.00 C 123.37 293.04 117.37 306.39 120.08 316.92 C 122.78 327.46 142.66 318.79 151.99 319.99 C 161.32 321.20 177.17 316.75 187.00 317.00
C 187.20 313.89 184.60 311.92 184.00 309.00
C 166.07 311.85 147.26 311.43 129.00 313.00
C 130.52 300.54 130.37 285.19 132.02 273.02 C 133.68 260.86 133.32 245.93 137.02 235.02 C 140.72 224.12 136.47 207.51 148.00 203.00 C 159.52 198.49 177.31 204.46 190.00 202.00 C 202.68 199.54 218.67 202.34 231.78 200.78 C 244.89 199.22 260.83 200.68 273.98 199.98 C 287.12 199.27 299.05 198.55 313.00 199.00
C 306.79 231.06 301.97 265.29 299.00 297.00 Z"/>
</g>
<g fill="#000000" fill-opacity="0.02" stroke="None">
<path d="
M 126.00 224.00 
C 126.53 218.23 131.99 208.92 127.00 205.00
C 125.75 210.57 121.91 220.31 126.00 224.00 Z"/>
</g>
<g fill="#FFFFFF" fill-opacity="0.87" stroke="None">
<path d="
M 256.00 230.00 
C 250.00 229.21 247.79 238.62 253.97 239.97 C 260.16 241.33 262.04 230.79 256.00 230.00 Z"/>
</g>
<g fill="#FFFFFF" fill-opacity="0.87" stroke="None">
<path d="
M 194.00 231.00 
C 188.32 228.40 183.58 236.90 188.92 240.07 C 194.27 243.24 199.18 233.37 194.00 231.00 Z"/>
</g>
<g fill="#FFFFFF" fill-opacity="0.80" stroke="None">
<path d="
M 278.00 258.00 
C 277.76 258.61 279.20 260.98 278.00 262.00
C 275.93 262.32 274.68 259.47 276.00 258.00
C 263.64 278.45 237.49 281.56 215.00 281.00 C 192.51 280.44 167.13 271.66 151.00 256.00
C 158.22 269.36 174.75 278.26 190.33 281.67 C 205.91 285.08 231.46 286.79 246.78 281.78 C 262.09 276.76 276.63 268.32 283.00 254.00
C 279.17 252.81 279.06 255.68 278.00 258.00 Z"/>
</g>
<g fill="#FFFFFF" fill-opacity="0.57" stroke="None">
<path d="
M 278.00 258.00 
C 277.91 258.19 276.47 257.88 276.00 258.00
C 274.68 259.47 275.93 262.32 278.00 262.00
C 279.20 260.98 277.76 258.61 278.00 258.00 Z"/>
</g>
<g fill="#FFFFFF" fill-opacity="0.73" stroke="None">
<path d="
M 336.00 291.00 
C 338.36 291.06 343.53 293.44 344.00 289.00
C 338.79 288.60 333.66 284.46 329.00 288.00
C 332.33 286.49 334.02 290.15 336.00 291.00 Z"/>
</g>
<g fill="#000000" fill-opacity="0.02" stroke="None">
<path d="
M 114.00 307.00 
C 117.98 303.23 117.71 292.58 116.00 287.00
C 114.54 293.41 111.62 300.40 114.00 307.00 Z"/>
</g>
<g fill="#FBFBFB" fill-opacity="0.91" stroke="None">
<path d="
M 327.00 313.00 
C 326.73 314.59 326.15 316.37 324.00 316.00
C 323.49 310.58 325.06 314.85 327.00 312.00
C 332.77 312.43 340.75 317.00 339.20 324.75 C 337.65 332.51 347.98 331.35 348.67 324.67 C 349.36 317.99 346.90 310.65 342.00 310.00
C 339.41 309.66 338.41 310.40 336.00 310.00
C 336.77 307.29 339.89 308.14 342.00 308.00
C 351.82 307.47 353.14 320.00 352.00 327.00
C 365.59 323.75 355.86 307.39 351.00 300.00
C 356.54 300.53 360.86 307.34 362.00 312.00
C 362.57 312.44 364.30 312.34 365.00 313.00
C 367.32 298.49 357.05 292.59 344.00 289.00
C 343.53 293.44 338.36 291.06 336.00 291.00
C 329.36 288.58 313.28 284.79 307.26 292.25 C 301.25 299.71 289.48 305.56 303.00 312.00
C 303.88 308.77 309.29 307.32 309.00 303.00
C 317.00 302.58 316.42 313.87 316.21 319.77 C 316.01 325.67 317.53 334.48 323.97 331.97 C 330.42 329.47 329.89 316.91 327.00 313.00
M 322.00 291.00 
C 320.07 291.70 318.09 292.17 316.00 291.00
C 316.70 288.24 321.33 288.28 322.00 291.00
M 328.00 297.00 
C 324.51 297.14 323.40 293.90 323.00 291.00
C 326.40 290.22 327.35 294.55 328.00 297.00 Z"/>
</g>
<g fill="#FFFFFF" fill-opacity="0.65" stroke="None">
<path d="
M 87.00 290.00 
C 81.88 287.09 75.15 290.43 70.00 292.00
C 74.98 294.37 81.65 290.94 87.00 290.00 Z"/>
</g>
<g fill="#FFFFFF" fill-opacity="0.39" stroke="None">
<path d="
M 322.00 291.00 
C 321.33 288.28 316.70 288.24 316.00 291.00
C 318.09 292.17 320.07 291.70 322.00 291.00 Z"/>
</g>
<g fill="#FDFDFD" fill-opacity="0.91" stroke="None">
<path d="
M 236.00 309.00 
C 241.65 310.65 246.15 322.13 253.30 315.30 C 260.44 308.46 247.19 307.98 241.22 306.78 C 235.25 305.57 230.50 299.75 225.08 296.92 C 219.66 294.09 213.57 289.90 207.00 291.00
C 209.29 294.89 213.71 298.57 217.00 302.00
C 209.12 303.02 206.36 287.66 198.00 294.00
C 199.04 296.38 201.89 297.59 203.00 300.00
C 197.82 300.78 197.10 295.69 192.00 295.00
C 185.98 302.14 188.55 311.78 191.00 319.00
C 181.96 321.54 187.29 331.13 194.25 328.25 C 201.21 325.37 197.66 312.70 202.00 321.00
C 204.76 318.39 200.67 311.65 205.00 311.00
C 210.67 318.14 196.06 330.32 204.93 336.07 C 213.79 341.83 218.68 323.96 218.00 317.00
C 221.97 317.80 220.63 322.38 225.00 319.00
C 223.83 325.92 228.13 341.65 236.23 334.23 C 244.33 326.81 237.18 316.44 236.00 309.00
M 204.00 301.00 
C 210.51 299.49 206.11 306.83 204.00 301.00 Z"/>
</g>
<g fill="#FFFFFF" fill-opacity="0.64" stroke="None">
<path d="
M 328.00 297.00 
C 327.35 294.55 326.40 290.22 323.00 291.00
C 323.40 293.90 324.51 297.14 328.00 297.00 Z"/>
</g>
<g fill="#000000" fill-opacity="0.01" stroke="None">
<path d="
M 204.00 301.00 
C 206.11 306.83 210.51 299.49 204.00 301.00 Z"/>
</g>
<g fill="#FFFFFF" fill-opacity="0.89" stroke="None">
<path d="
M 297.00 313.00 
C 290.34 297.41 271.97 307.93 258.00 306.00
C 259.08 308.57 258.55 311.55 260.00 314.00
C 271.90 311.91 284.70 313.49 297.00 313.00 Z"/>
</g>
<g fill="#FFFFFF" fill-opacity="0.64" stroke="None">
<path d="
M 342.00 310.00 
C 341.87 309.96 342.20 308.11 342.00 308.00
C 339.89 308.14 336.77 307.29 336.00 310.00
C 338.41 310.40 339.41 309.66 342.00 310.00 Z"/>
</g>
<g fill="#FEFEFE" fill-opacity="0.82" stroke="None">
<path d="
M 312.00 309.00 
C 303.72 316.66 288.76 316.75 277.00 316.00 C 265.24 315.25 252.15 322.54 243.00 317.00
C 241.29 320.57 241.68 320.26 243.00 325.00
C 245.29 325.97 249.69 326.29 250.00 329.00
C 251.96 325.66 256.52 327.42 260.00 327.00
C 258.93 324.97 254.88 324.70 255.00 322.00
C 262.75 325.73 269.62 327.78 279.00 326.00
C 278.49 323.57 274.39 324.02 275.00 321.00
C 281.84 323.40 289.12 327.18 297.00 324.00
C 296.00 321.99 292.68 322.49 292.00 320.00
C 299.85 320.16 304.50 326.14 313.00 322.00
C 311.91 318.91 310.69 316.38 307.00 315.00
C 311.65 314.68 313.54 314.32 312.00 309.00 Z"/>
</g>
<g fill="#FFFFFF" fill-opacity="0.64" stroke="None">
<path d="
M 327.00 313.00 
C 327.00 313.00 326.75 312.27 327.00 312.00
C 325.06 314.85 323.49 310.58 324.00 316.00
C 326.15 316.37 326.73 314.59 327.00 313.00 Z"/>
</g>
<g fill="#FFFFFF" fill-opacity="0.73" stroke="None">
<path d="
M 365.00 313.00 
C 364.30 312.34 362.57 312.44 362.00 312.00
C 362.39 313.87 361.13 316.86 363.00 318.00
C 365.79 317.71 364.89 313.71 365.00 313.00 Z"/>
</g>
<g fill="#FFFFFF" fill-opacity="0.69" stroke="None">
<path d="
M 412.00 315.00 
C 406.56 312.32 397.92 310.77 392.00 313.00
C 398.83 312.49 405.86 316.09 412.00 315.00 Z"/>
</g>
<g fill="#ECECEC" fill-opacity="0.36" stroke="None">
<path d="
M 336.00 327.00 
C 336.68 322.87 334.63 318.97 331.00 317.00
C 330.88 322.21 329.91 327.92 336.00 327.00 Z"/>
</g>
<g fill="#FDFDFD" fill-opacity="0.85" stroke="None">
<path d="
M 227.00 365.00 
C 228.43 361.04 225.86 355.95 230.00 354.00
C 215.03 353.07 195.19 358.53 182.69 350.31 C 170.20 342.08 161.00 339.21 148.00 333.00
C 151.83 328.67 159.60 332.09 165.00 331.00
C 164.48 328.19 160.57 329.78 160.00 327.00
C 167.84 327.76 173.77 332.48 182.00 330.00
C 177.92 326.68 181.67 323.28 183.00 320.00
C 173.86 322.26 163.28 321.47 154.00 323.00 C 144.72 324.53 134.38 321.57 127.00 326.00
C 143.36 335.16 157.50 339.48 173.31 350.69 C 189.11 361.91 207.39 365.00 227.00 365.00
M 211.00 361.00 
C 208.67 363.19 204.74 360.69 202.00 360.00
C 204.40 357.55 208.32 360.08 211.00 361.00 Z"/>
</g>
<g fill="#E3E3E3" fill-opacity="0.68" stroke="None">
<path d="
M 131.00 345.00 
C 129.12 342.58 128.82 336.91 124.00 338.00
C 125.25 334.87 126.96 336.55 128.00 334.00
C 122.72 331.29 118.48 333.70 115.00 335.00
C 115.66 331.09 117.09 329.71 121.00 329.00
C 120.82 328.58 121.00 328.00 121.00 328.00
C 118.95 327.43 117.50 324.79 118.00 325.00
C 111.17 324.12 112.20 333.84 116.30 337.70 C 120.41 341.55 126.33 342.45 131.00 345.00 Z"/>
</g>
<g fill="#ECECEC" fill-opacity="0.62" stroke="None">
<path d="
M 222.00 324.00 
C 218.50 325.27 220.42 329.57 221.00 332.00
C 224.50 330.73 222.58 326.43 222.00 324.00 Z"/>
</g>
<g fill="#FCFCFC" fill-opacity="0.89" stroke="None">
<path d="
M 121.00 328.00 
C 123.62 329.09 126.77 330.10 129.00 333.00
C 126.08 332.87 122.56 331.56 121.00 329.00
C 117.09 329.71 115.66 331.09 115.00 335.00
C 118.48 333.70 122.72 331.29 128.00 334.00
C 126.96 336.55 125.25 334.87 124.00 338.00
C 128.82 336.91 129.12 342.58 131.00 345.00
C 137.20 348.38 145.94 353.84 152.77 356.23 C 159.60 358.62 168.06 366.28 174.32 367.68 C 180.58 369.08 193.91 379.42 198.00 373.00 C 202.09 366.58 185.83 360.86 181.08 357.92 C 176.32 354.99 167.31 351.00 161.08 346.92 C 154.85 342.85 146.02 339.29 139.23 335.77 C 132.44 332.25 125.85 326.02 118.00 325.00
C 117.50 324.79 118.95 327.43 121.00 328.00
M 134.00 334.00 
C 131.79 337.50 136.38 336.07 138.00 337.00
C 134.74 340.52 131.51 336.98 128.00 338.00
C 128.80 335.22 130.83 333.19 134.00 334.00 Z"/>
</g>
<g fill="#FFFFFF" fill-opacity="0.62" stroke="None">
<path d="
M 314.00 330.00 
C 315.05 324.68 309.27 323.82 306.00 327.00
C 308.84 327.55 311.45 328.58 314.00 330.00 Z"/>
</g>
<g fill="#FFFFFF" fill-opacity="0.83" stroke="None">
<path d="
M 434.00 327.00 
C 433.76 326.83 434.18 325.08 434.00 325.00
C 432.13 325.39 429.14 324.13 428.00 326.00
C 430.05 326.28 432.05 326.48 434.00 327.00 Z"/>
</g>
<g fill="#FFFFFF" fill-opacity="0.67" stroke="None">
<path d="
M 434.00 327.00 
C 436.97 326.97 440.53 330.65 443.00 328.00
C 440.14 326.46 437.25 325.22 434.00 325.00
C 434.18 325.08 433.76 326.83 434.00 327.00 Z"/>
</g>
<g fill="#FFFFFF" fill-opacity="0.75" stroke="None">
<path d="
M 300.00 326.00 
C 296.84 326.13 294.02 327.46 291.00 328.00
C 294.82 333.19 304.10 333.26 309.00 330.00
C 306.56 328.47 295.94 328.81 300.00 326.00 Z"/>
</g>
<g fill="#FEFEFE" fill-opacity="0.94" stroke="None">
<path d="
M 230.00 354.00 
C 225.86 355.95 228.43 361.04 227.00 365.00
C 259.38 364.12 296.20 365.55 328.00 363.00 C 359.79 360.45 390.16 361.01 421.00 354.00
C 411.97 347.22 399.78 341.54 389.08 337.92 C 378.37 334.31 366.31 323.08 356.00 329.00
C 366.89 332.72 376.85 339.02 388.00 342.00
C 371.18 346.28 352.69 344.96 335.00 347.00 C 317.31 349.05 300.65 348.83 283.22 350.22 C 265.79 351.61 247.39 352.82 230.00 354.00
M 293.00 357.00 
C 290.90 359.08 286.85 357.50 284.00 358.00
C 286.10 355.92 290.15 357.50 293.00 357.00 Z"/>
</g>
<g fill="#FFFFFF" fill-opacity="0.75" stroke="None">
<path d="
M 85.00 327.00 
C 72.10 332.46 58.60 341.38 49.00 351.00
C 62.06 344.26 74.16 336.56 85.00 327.00 Z"/>
</g>
<g fill="#ADADAD" fill-opacity="0.44" stroke="None">
<path d="
M 121.00 329.00 
C 122.56 331.56 126.08 332.87 129.00 333.00
C 126.77 330.10 123.62 329.09 121.00 328.00
C 121.00 328.00 120.82 328.58 121.00 329.00 Z"/>
</g>
<g fill="#FFFFFF" fill-opacity="0.64" stroke="None">
<path d="
M 271.00 332.00 
C 272.26 332.22 257.48 332.74 263.00 330.00
C 259.56 329.64 256.78 331.57 254.00 329.00
C 253.11 333.10 262.87 330.92 258.00 334.00
C 263.00 334.00 268.00 334.00 273.00 334.00
C 272.84 333.17 271.87 332.15 271.00 332.00 Z"/>
</g>
<g fill="#FFFFFF" fill-opacity="0.74" stroke="None">
<path d="
M 291.00 332.00 
C 286.31 328.52 277.46 327.01 273.00 331.00
C 278.29 333.27 285.73 334.13 291.00 332.00 Z"/>
</g>
<g fill="#FFFFFF" fill-opacity="0.85" stroke="None">
<path d="
M 271.00 332.00 
C 269.00 330.35 265.48 330.09 263.00 330.00
C 257.48 332.74 272.26 332.22 271.00 332.00 Z"/>
</g>
<g fill="#FFFFFF" fill-opacity="0.70" stroke="None">
<path d="
M 362.00 334.00 
C 356.15 332.80 351.61 329.18 346.00 332.00
C 349.83 337.43 357.04 335.76 362.00 334.00 Z"/>
</g>
<g fill="#FFFFFF" fill-opacity="0.80" stroke="None">
<path d="
M 240.00 335.00 
C 242.60 335.75 253.83 335.22 251.07 331.93 C 248.32 328.64 239.31 330.67 240.00 335.00 Z"/>
</g>
<g fill="#EBEBEB" fill-opacity="0.69" stroke="None">
<path d="
M 197.00 337.00 
C 192.37 333.72 182.93 329.59 178.00 334.00
C 179.95 334.89 182.07 335.83 183.00 338.00
C 187.61 335.50 192.58 338.88 197.00 337.00 Z"/>
</g>
<g fill="#FFFFFF" fill-opacity="0.66" stroke="None">
<path d="
M 201.00 334.00 
C 200.22 331.27 195.46 331.33 194.00 333.00
C 196.25 333.71 198.83 335.82 201.00 334.00 Z"/>
</g>
<g fill="#FFFFFF" fill-opacity="0.70" stroke="None">
<path d="
M 347.00 335.00 
C 342.95 334.11 338.91 333.27 335.00 332.00
C 335.46 336.73 345.41 339.44 347.00 335.00 Z"/>
</g>
<g fill="#FFFFFF" fill-opacity="0.76" stroke="None">
<path d="
M 178.00 337.00 
C 173.72 332.29 165.38 331.57 160.00 335.00
C 165.50 338.21 171.93 338.24 178.00 337.00 Z"/>
</g>
<g fill="#FFFFFF" fill-opacity="0.73" stroke="None">
<path d="
M 134.00 334.00 
C 130.83 333.19 128.80 335.22 128.00 338.00
C 131.51 336.98 134.74 340.52 138.00 337.00
C 136.38 336.07 131.79 337.50 134.00 334.00 Z"/>
</g>
<g fill="#FFFFFF" fill-opacity="0.74" stroke="None">
<path d="
M 223.00 335.00 
C 215.85 332.93 217.53 338.10 223.00 335.00 Z"/>
</g>
<g fill="#FFFFFF" fill-opacity="0.69" stroke="None">
<path d="
M 334.00 337.00 
C 330.95 332.95 325.66 335.29 322.00 336.00
C 324.84 339.65 330.22 337.44 334.00 337.00 Z"/>
</g>
<g fill="#FFFFFF" fill-opacity="0.75" stroke="None">
<path d="
M 303.00 340.00 
C 297.86 333.90 290.20 336.03 283.00 336.00
C 287.69 342.52 296.49 338.75 303.00 340.00 Z"/>
</g>
<g fill="#F9F9F9" fill-opacity="0.68" stroke="None">
<path d="
M 320.00 339.00 
C 315.81 332.68 306.80 336.04 301.00 335.00
C 305.62 341.40 313.10 338.88 320.00 339.00 Z"/>
</g>
<g fill="#FFFFFF" fill-opacity="0.79" stroke="None">
<path d="
M 377.00 340.00 
C 369.61 337.30 361.50 334.70 356.00 340.00
C 362.46 342.53 370.48 341.36 377.00 340.00 Z"/>
</g>
<g fill="#FFFFFF" fill-opacity="0.79" stroke="None">
<path d="
M 264.00 341.00 
C 260.25 336.59 250.40 336.41 247.00 340.00
C 252.43 341.76 258.31 342.90 264.00 341.00 Z"/>
</g>
<g fill="#FFFFFF" fill-opacity="0.79" stroke="None">
<path d="
M 283.00 341.00 
C 279.07 335.34 271.13 337.34 265.00 337.00
C 269.19 342.40 276.94 340.41 283.00 341.00 Z"/>
</g>
<g fill="#FFFFFF" fill-opacity="0.80" stroke="None">
<path d="
M 246.00 342.00 
C 243.01 338.25 234.30 339.05 229.00 341.00
C 233.75 343.55 241.09 343.96 246.00 342.00 Z"/>
</g>
<g fill="#FFFFFF" fill-opacity="0.66" stroke="None">
<path d="
M 356.00 342.00 
C 353.20 339.72 344.72 336.77 343.00 341.00
C 347.14 343.01 351.56 343.44 356.00 342.00 Z"/>
</g>
<g fill="#FFFFFF" fill-opacity="0.77" stroke="None">
<path d="
M 192.00 342.00 
C 186.03 342.06 178.98 338.90 172.00 340.00
C 176.74 345.08 187.88 348.69 192.00 342.00 Z"/>
</g>
<g fill="#FFFFFF" fill-opacity="0.77" stroke="None">
<path d="
M 208.00 344.00 
C 207.55 337.39 194.95 341.21 193.00 343.00
C 197.11 345.76 203.65 342.64 208.00 344.00 Z"/>
</g>
<g fill="#FFFFFF" fill-opacity="0.77" stroke="None">
<path d="
M 227.00 343.00 
C 226.48 342.68 226.37 341.34 226.00 341.00
C 222.10 339.19 216.26 339.49 213.00 342.00
C 216.45 345.78 223.14 343.41 227.00 343.00 Z"/>
</g>
<g fill="#B6B6B6" fill-opacity="0.27" stroke="None">
<path d="
M 226.00 341.00 
C 226.37 341.34 226.48 342.68 227.00 343.00
C 228.45 342.92 229.86 343.07 231.00 344.00
C 231.51 340.88 226.80 341.15 226.00 341.00 Z"/>
</g>
<g fill="#FFFFFF" fill-opacity="0.73" stroke="None">
<path d="
M 343.00 342.00 
C 338.83 339.44 331.75 338.59 328.00 342.00
C 332.40 345.38 338.68 343.57 343.00 342.00 Z"/>
</g>
<g fill="#FFFFFF" fill-opacity="0.80" stroke="None">
<path d="
M 327.00 343.00 
C 322.78 342.20 317.22 339.85 314.00 344.00
C 317.49 345.09 325.49 346.73 327.00 343.00 Z"/>
</g>
<g fill="#FFFFFF" fill-opacity="0.80" stroke="None">
<path d="
M 312.00 344.00 
C 306.56 341.68 296.88 341.62 293.00 345.00
C 298.52 347.64 308.14 347.47 312.00 344.00 Z"/>
</g>
<g fill="#FFFFFF" fill-opacity="0.78" stroke="None">
<path d="
M 293.00 346.00 
C 287.66 342.92 280.66 343.12 275.00 345.00
C 279.80 349.82 287.76 347.88 293.00 346.00 Z"/>
</g>
<g fill="#FFFFFF" fill-opacity="0.76" stroke="None">
<path d="
M 275.00 347.00 
C 269.42 343.51 261.41 343.17 256.00 347.00
C 261.67 349.57 268.89 349.06 275.00 347.00 Z"/>
</g>
<g fill="#FFFFFF" fill-opacity="0.74" stroke="None">
<path d="
M 256.00 348.00 
C 250.51 346.12 243.00 344.32 238.00 348.00
C 242.75 350.58 252.83 351.76 256.00 348.00 Z"/>
</g>
<g fill="#FFFFFF" fill-opacity="0.76" stroke="None">
<path d="
M 236.00 349.00 
C 231.25 346.45 223.91 346.04 219.00 348.00
C 223.23 351.36 232.90 353.09 236.00 349.00 Z"/>
</g>
<g fill="#FFFFFF" fill-opacity="0.82" stroke="None">
<path d="
M 202.00 352.00 
C 198.32 346.60 190.84 348.21 185.00 348.00
C 189.19 352.69 195.88 352.24 202.00 352.00 Z"/>
</g>
<g fill="#FFFFFF" fill-opacity="0.76" stroke="None">
<path d="
M 219.00 351.00 
C 214.19 347.16 206.36 347.03 201.00 349.00
C 206.49 350.81 213.46 353.84 219.00 351.00 Z"/>
</g>
<g fill="#000000" fill-opacity="0.00" stroke="None">
<path d="
M 293.00 357.00 
C 290.15 357.50 286.10 355.92 284.00 358.00
C 286.85 357.50 290.90 359.08 293.00 357.00 Z"/>
</g>
<g fill="#FFFFFF" fill-opacity="0.87" stroke="None">
<path d="
M 418.00 358.00 
C 408.58 360.77 397.85 361.26 388.00 362.00 C 378.15 362.74 382.76 362.16 373.00 363.00 C 363.24 363.84 351.64 363.76 342.00 365.00 C 332.36 366.24 336.17 366.31 326.00 366.00 C 315.83 365.69 306.32 367.11 296.00 367.00 C 285.68 366.89 289.78 366.13 280.00 367.00 C 270.22 367.87 257.94 368.29 248.00 368.00 C 238.06 367.71 239.50 368.09 231.00 368.00 C 222.50 367.91 223.60 367.62 228.00 371.00
C 223.89 371.06 208.34 371.80 218.00 368.00
C 212.73 367.46 206.85 369.15 202.00 367.00
C 198.33 379.03 216.58 374.13 225.98 373.98 C 235.37 373.82 249.64 372.64 259.78 372.78 C 269.91 372.92 280.11 370.86 291.00 371.00 C 301.89 371.14 313.64 370.17 324.33 369.33 C 335.02 368.49 347.33 369.17 357.78 367.78 C 368.23 366.39 380.65 366.19 391.00 366.00 C 401.35 365.81 414.10 367.87 418.00 358.00 Z"/>
</g>
<g fill="#FFFFFF" fill-opacity="0.81" stroke="None">
<path d="
M 118.00 361.00 
C 115.31 358.56 107.77 359.86 104.00 361.00
C 107.53 362.71 114.40 362.60 118.00 361.00 Z"/>
</g>
<g fill="#000000" fill-opacity="0.02" stroke="None">
<path d="
M 211.00 361.00 
C 208.32 360.08 204.40 357.55 202.00 360.00
C 204.74 360.69 208.67 363.19 211.00 361.00 Z"/>
</g>
<g fill="#FFFFFF" fill-opacity="0.65" stroke="None">
<path d="
M 434.00 378.00 
C 428.58 376.18 420.96 378.13 415.00 379.00
C 420.65 381.86 428.06 378.89 434.00 378.00 Z"/>
</g>
</svg>